<svg xmlns="http://www.w3.org/2000/svg" version="1.1" xmlns:xlink="http://www.w3.org/1999/xlink" xmlns:svgjs="http://svgjs.com/svgjs" width="500" height="500"><svg xmlns="http://www.w3.org/2000/svg" xmlns:xlink="http://www.w3.org/1999/xlink" width="500" zoomAndPan="magnify" viewBox="0 0 375 374.999991" height="500" preserveAspectRatio="xMidYMid meet" version="1.0"><defs><clipPath id="SvgjsClipPath1011"><path d="M 10 191 L 318 191 L 318 272 L 10 272 Z M 10 191 " clip-rule="nonzero"></path></clipPath><clipPath id="SvgjsClipPath1010"><path d="M 317.449219 205.964844 L 13.390625 271.195312 L 10.277344 256.675781 L 314.332031 191.445312 Z M 317.449219 205.964844 " clip-rule="nonzero"></path></clipPath><clipPath id="SvgjsClipPath1009"><path d="M 317.449219 205.964844 L 13.390625 271.195312 L 10.277344 256.675781 L 314.332031 191.445312 Z M 317.449219 205.964844 " clip-rule="nonzero"></path></clipPath><clipPath id="SvgjsClipPath1008"><path d="M 144 123 L 309 123 L 309 183 L 144 183 Z M 144 123 " clip-rule="nonzero"></path></clipPath><clipPath id="SvgjsClipPath1007"><path d="M 308.898438 136.085938 L 147.800781 182.71875 L 144.15625 170.121094 L 305.253906 123.488281 Z M 308.898438 136.085938 " clip-rule="nonzero"></path></clipPath><clipPath id="SvgjsClipPath1006"><path d="M 308.898438 136.085938 L 147.800781 182.71875 L 144.15625 170.121094 L 305.253906 123.488281 Z M 308.898438 136.085938 " clip-rule="nonzero"></path></clipPath><clipPath id="SvgjsClipPath1005"><path d="M 88 143 L 365 143 L 365 222 L 88 222 Z M 88 143 " clip-rule="nonzero"></path></clipPath><clipPath id="SvgjsClipPath1004"><path d="M 364.707031 154.355469 L 91.0625 221.023438 L 88.335938 209.835938 L 361.980469 143.167969 Z M 364.707031 154.355469 " clip-rule="nonzero"></path></clipPath><clipPath id="SvgjsClipPath1003"><path d="M 364.707031 154.355469 L 91.0625 221.023438 L 88.335938 209.835938 L 361.980469 143.167969 Z M 364.707031 154.355469 " clip-rule="nonzero"></path></clipPath><clipPath id="SvgjsClipPath1002"><path d="M 181 103 L 272 103 L 272 144 L 181 144 Z M 181 103 " clip-rule="nonzero"></path></clipPath><clipPath id="SvgjsClipPath1001"><path d="M 271.917969 114.742188 L 184.707031 143.164062 L 181.140625 132.21875 L 268.351562 103.796875 Z M 271.917969 114.742188 " clip-rule="nonzero"></path></clipPath><clipPath id="SvgjsClipPath1000"><path d="M 271.917969 114.742188 L 184.707031 143.164062 L 181.140625 132.21875 L 268.351562 103.796875 Z M 271.917969 114.742188 " clip-rule="nonzero"></path></clipPath></defs><g clip-path="url(#7dfcaf47fd)"><g clip-path="url(#1e7e41a39e)"><g clip-path="url(#433790e587)"><path fill="#ffffff" d="M 317.449219 205.964844 L 13.390625 271.195312 L 10.277344 256.675781 L 314.332031 191.445312 Z M 317.449219 205.964844 " fill-opacity="1" fill-rule="nonzero"></path></g></g></g><g clip-path="url(#9d27811140)"><g clip-path="url(#730ec6e7f3)"><g clip-path="url(#4bc54e6e8a)"><path fill="#ffffff" d="M 308.898438 136.085938 L 147.800781 182.71875 L 144.15625 170.121094 L 305.253906 123.488281 Z M 308.898438 136.085938 " fill-opacity="1" fill-rule="nonzero"></path></g></g></g><g clip-path="url(#87b61c2c6b)"><g clip-path="url(#889d8b66be)"><g clip-path="url(#f3f72662b5)"><path fill="#ffffff" d="M 364.707031 154.355469 L 91.0625 221.023438 L 88.335938 209.835938 L 361.980469 143.167969 Z M 364.707031 154.355469 " fill-opacity="1" fill-rule="nonzero"></path></g></g></g><g clip-path="url(#673c7bb79c)"><g clip-path="url(#15d5512084)"><g clip-path="url(#fd55c84aff)"><path fill="#ffffff" d="M 271.917969 114.742188 L 184.707031 143.164062 L 181.140625 132.21875 L 268.351562 103.796875 Z M 271.917969 114.742188 " fill-opacity="1" fill-rule="nonzero"></path></g></g></g></svg><style>@media (prefers-color-scheme: light) { :root { filter: none; } }
</style></svg>