<svg xmlns="http://www.w3.org/2000/svg" xmlns:xlink="http://www.w3.org/1999/xlink" width="500" zoomAndPan="magnify" viewBox="0 0 375 374.999991" height="500" preserveAspectRatio="xMidYMid meet" version="1.0"><defs><g/><clipPath id="06eab2f40f"><path d="M 88 91.429688 L 106 91.429688 L 106 127 L 88 127 Z M 88 91.429688 " clip-rule="nonzero"/></clipPath><clipPath id="9b2971bb68"><path d="M 32 123 L 123.664062 123 L 123.664062 252.679688 L 32 252.679688 Z M 32 123 " clip-rule="nonzero"/></clipPath></defs><g clip-path="url(#06eab2f40f)"><path fill="#000000" d="M 92.429688 125.796875 C 93.425781 125.796875 94.746094 125.796875 95.742188 126.457031 C 95.742188 126.457031 96.070312 126.125 96.070312 126.125 L 104.675781 121.5 L 105.007812 121.167969 C 105.007812 121.167969 105.339844 121.167969 105.339844 120.839844 L 105.007812 109.605469 C 105.007812 108.941406 104.675781 108.613281 104.675781 107.953125 L 95.410156 93.414062 C 94.085938 91.761719 91.769531 91.429688 90.445312 93.082031 C 89.785156 94.074219 89.453125 95.394531 90.113281 96.386719 L 96.070312 108.613281 L 92.761719 108.28125 C 90.445312 107.953125 88.789062 109.933594 88.789062 111.917969 L 88.789062 121.167969 C 88.460938 124.144531 90.445312 125.796875 92.429688 125.796875 Z M 92.429688 125.796875 " fill-opacity="1" fill-rule="nonzero"/></g><g clip-path="url(#9b2971bb68)"><path fill="#000000" d="M 122.546875 170.734375 L 108.648438 124.472656 C 108.316406 123.480469 107.324219 123.152344 106.660156 123.8125 L 106.332031 123.8125 L 97.726562 128.4375 C 97.394531 128.769531 97.0625 129.097656 97.0625 129.761719 L 97.0625 130.089844 L 103.351562 170.402344 L 94.085938 192.871094 L 88.460938 191.550781 L 79.191406 199.480469 C 78.199219 200.140625 77.207031 200.472656 76.214844 200.472656 C 74.558594 200.472656 73.234375 199.480469 72.242188 198.160156 L 70.917969 196.175781 C 70.257812 203.117188 69.597656 213.359375 68.933594 213.359375 C 68.273438 212.039062 67.609375 202.785156 66.949219 196.507812 L 65.625 198.488281 C 64.632812 199.8125 63.308594 200.804688 61.652344 200.804688 C 60.660156 200.804688 59.335938 200.472656 58.675781 199.8125 L 49.40625 191.882812 L 43.449219 193.203125 L 38.488281 195.515625 C 34.515625 197.5 31.867188 201.464844 32.199219 206.089844 C 32.199219 214.679688 32.199219 228.226562 32.199219 228.226562 C 32.199219 228.226562 32.859375 239.792969 33.851562 248.714844 C 34.183594 251.027344 35.839844 252.679688 38.15625 252.679688 L 47.089844 252.679688 L 48.414062 223.601562 L 50.402344 252.679688 L 100.375 252.679688 C 102.691406 252.679688 104.34375 251.027344 104.675781 248.714844 C 105.339844 244.089844 105.667969 238.472656 106 234.175781 L 106 224.261719 L 122.878906 176.679688 C 123.210938 174.699219 123.210938 172.714844 122.546875 170.734375 Z M 122.546875 170.734375 " fill-opacity="1" fill-rule="nonzero"/></g><path fill="#000000" d="M 53.378906 169.742188 C 54.042969 171.394531 54.703125 173.378906 54.703125 174.039062 C 54.703125 175.359375 55.695312 176.019531 56.6875 175.359375 C 57.351562 178.332031 58.011719 181.308594 59.003906 182.628906 C 60.660156 185.273438 63.96875 187.253906 68.601562 187.914062 C 69.265625 187.914062 69.597656 187.914062 70.257812 187.914062 C 74.890625 187.253906 78.199219 185.273438 79.855469 182.628906 C 80.847656 180.976562 81.839844 178.003906 82.171875 175.027344 C 83.164062 175.691406 84.488281 175.027344 84.488281 173.707031 C 84.488281 172.714844 85.148438 171.0625 85.8125 169.410156 C 90.113281 169.410156 99.710938 169.082031 99.050781 166.4375 C 99.050781 166.109375 98.71875 165.445312 98.386719 165.117188 C 97.394531 164.125 94.085938 161.152344 86.472656 159.5 C 86.144531 159.5 85.8125 159.5 85.480469 159.5 C 85.480469 154.542969 85.148438 149.585938 83.164062 146.941406 C 81.179688 144.628906 71.582031 143.636719 71.582031 143.636719 L 67.609375 143.636719 C 67.609375 143.636719 58.011719 144.300781 56.027344 146.941406 C 54.042969 149.253906 53.378906 154.542969 53.710938 159.5 C 53.378906 159.5 53.046875 159.5 52.71875 159.5 C 47.421875 160.492188 43.78125 162.804688 42.128906 164.125 C 42.128906 164.125 42.128906 164.125 41.796875 164.457031 C 41.796875 164.457031 41.796875 164.457031 41.464844 164.457031 C 41.132812 164.785156 40.804688 164.785156 40.804688 165.117188 C 40.472656 165.445312 40.472656 165.777344 40.140625 166.109375 C 38.816406 169.742188 52.71875 169.742188 53.378906 169.742188 Z M 53.378906 169.742188 " fill-opacity="1" fill-rule="nonzero"/><path fill="#000000" d="M 53.710938 190.890625 L 60.992188 197.167969 C 61.652344 197.828125 62.644531 197.5 62.976562 196.835938 L 66.285156 191.21875 C 61.652344 190.230469 58.675781 187.914062 57.019531 185.933594 Z M 53.710938 190.890625 " fill-opacity="1" fill-rule="nonzero"/><path fill="#000000" d="M 72.242188 191.21875 L 75.554688 196.835938 C 75.882812 197.5 76.875 197.828125 77.539062 197.167969 L 84.820312 190.890625 L 82.171875 186.265625 C 79.855469 187.914062 76.875 190.230469 72.242188 191.21875 Z M 72.242188 191.21875 " fill-opacity="1" fill-rule="nonzero"/><g fill="#ff00ff" fill-opacity="1"><g transform="translate(137.854681, 191.001908)"><g><path d="M 3.496094 -25.328125 L 3.140625 -22.761719 C 2.710938 -19.90625 2.425781 -18.050781 2.285156 -17.125 L 2.285156 -16.269531 C 2.285156 -15.125 2.570312 -14.339844 2.996094 -13.84375 C 3.566406 -13.34375 4.496094 -12.984375 5.921875 -12.84375 C 6.777344 -12.773438 8.207031 -12.699219 10.132812 -12.699219 L 27.613281 -12.699219 C 27.542969 -12.058594 27.46875 -11.628906 27.398438 -11.34375 C 27.398438 -10.988281 27.257812 -10.703125 27.113281 -10.488281 C 26.96875 -10.347656 26.757812 -10.203125 26.472656 -10.132812 C 26.257812 -10.132812 25.6875 -10.058594 24.832031 -10.058594 L 1.355469 -10.058594 C 0.925781 -6.921875 0.714844 -4.921875 0.714844 -3.925781 C 0.714844 -2.855469 0.855469 -2.070312 1.214844 -1.5 C 1.640625 -1 2.285156 -0.640625 3.140625 -0.355469 C 4.136719 -0.214844 6.421875 -0.0703125 10.132812 -0.0703125 L 25.828125 -0.0703125 C 29.46875 -0.0703125 31.824219 -0.214844 32.820312 -0.355469 C 33.890625 -0.640625 34.675781 -1.070312 35.246094 -1.640625 C 35.675781 -2.210938 35.960938 -2.925781 36.246094 -3.851562 C 36.53125 -4.851562 36.960938 -6.921875 37.386719 -10.058594 L 37.746094 -12.699219 C 38.101562 -15.554688 38.316406 -17.410156 38.316406 -18.265625 L 38.316406 -18.695312 C 38.316406 -19.976562 38.101562 -20.90625 37.601562 -21.476562 C 37.101562 -22.046875 36.105469 -22.476562 34.535156 -22.617188 C 33.675781 -22.761719 31.824219 -22.761719 28.96875 -22.761719 L 13.269531 -22.761719 C 13.414062 -23.546875 13.484375 -24.046875 13.484375 -24.257812 C 13.558594 -24.542969 13.628906 -24.757812 13.769531 -24.902344 C 13.914062 -25.117188 14.199219 -25.257812 14.484375 -25.257812 C 14.769531 -25.328125 15.484375 -25.328125 16.480469 -25.328125 L 30.46875 -25.328125 C 32.75 -25.328125 34.390625 -25.402344 35.246094 -25.542969 C 36.246094 -25.6875 36.960938 -25.828125 37.53125 -26.113281 C 38.53125 -26.613281 39.242188 -27.542969 39.671875 -28.898438 C 40.027344 -29.894531 40.457031 -32.109375 40.882812 -35.390625 L 14.414062 -35.390625 C 11.84375 -35.390625 10.058594 -35.390625 9.0625 -35.246094 C 7.777344 -35.105469 6.851562 -34.820312 6.207031 -34.320312 C 5.492188 -33.75 4.921875 -32.820312 4.566406 -31.394531 C 4.28125 -30.394531 3.925781 -28.398438 3.496094 -25.328125 Z M 3.496094 -25.328125 "/></g></g></g><g fill="#ff00ff" fill-opacity="1"><g transform="translate(178.379762, 191.001908)"><g><path d="M 4.28125 -25.328125 L 3.925781 -22.691406 L 2.496094 -12.628906 L 2.140625 -10.058594 L 1.425781 -4.996094 C 1.355469 -4.421875 1.285156 -3.996094 1.214844 -3.710938 C 1.070312 -3.351562 0.925781 -3.066406 0.714844 -2.710938 C 0.570312 -2.425781 0.214844 -1.996094 -0.355469 -1.570312 C -0.640625 -1.285156 -1.214844 -0.785156 -2.140625 0 L 1.140625 0 C 3.851562 0 5.636719 -0.0703125 6.5625 -0.144531 C 7.921875 -0.285156 8.917969 -0.640625 9.5625 -1.140625 C 10.273438 -1.640625 10.84375 -2.496094 11.128906 -3.78125 C 11.417969 -4.78125 11.84375 -6.851562 12.273438 -10.058594 L 12.628906 -12.628906 L 14.054688 -22.691406 C 14.199219 -23.402344 14.269531 -23.832031 14.269531 -24.046875 C 14.414062 -24.472656 14.484375 -24.832031 14.625 -24.972656 C 14.839844 -25.1875 15.125 -25.257812 15.484375 -25.257812 C 15.769531 -25.328125 16.269531 -25.328125 17.054688 -25.328125 L 16.695312 -22.691406 L 15.269531 -12.628906 L 14.914062 -10.058594 L 13.484375 0 C 17.195312 0 19.550781 -0.144531 20.550781 -0.355469 C 21.546875 -0.640625 22.261719 -1 22.691406 -1.425781 C 23.261719 -1.996094 23.761719 -2.925781 24.046875 -4.136719 C 24.332031 -5.136719 24.617188 -7.0625 25.042969 -10.058594 L 25.402344 -12.628906 L 26.828125 -22.691406 C 26.96875 -23.332031 27.042969 -23.761719 27.042969 -23.972656 C 27.183594 -24.472656 27.257812 -24.757812 27.398438 -24.902344 C 27.613281 -25.117188 27.898438 -25.257812 28.183594 -25.257812 C 28.46875 -25.328125 29.109375 -25.328125 30.109375 -25.328125 L 29.753906 -22.691406 L 28.328125 -12.628906 L 27.96875 -10.058594 L 26.542969 0 C 30.109375 0 32.394531 -0.144531 33.390625 -0.285156 C 34.605469 -0.570312 35.460938 -1 36.03125 -1.640625 C 36.601562 -2.355469 36.960938 -3.351562 37.246094 -4.710938 C 37.460938 -5.636719 37.746094 -7.421875 38.101562 -10.058594 L 38.457031 -12.628906 L 39.886719 -22.691406 L 40.242188 -25.328125 C 40.671875 -28.46875 40.882812 -30.46875 40.882812 -31.394531 C 40.882812 -32.679688 40.671875 -33.605469 40.171875 -34.175781 C 39.742188 -34.675781 39.027344 -35.035156 37.957031 -35.175781 C 37.101562 -35.320312 35.675781 -35.390625 33.675781 -35.390625 C 33.25 -35.390625 32.535156 -35.390625 31.539062 -35.320312 L 15.839844 -35.320312 C 14.839844 -35.390625 14.054688 -35.390625 13.628906 -35.390625 C 11.628906 -35.390625 10.203125 -35.320312 9.347656 -35.175781 C 8.132812 -35.035156 7.207031 -34.675781 6.636719 -34.105469 C 5.992188 -33.535156 5.492188 -32.464844 5.136719 -30.964844 C 4.996094 -30.039062 4.710938 -28.183594 4.28125 -25.328125 Z M 4.28125 -25.328125 "/></g></g></g><g fill="#ff00ff" fill-opacity="1"><g transform="translate(219.903699, 191.001908)"><g><path d="M 32.535156 -35.390625 L 4.921875 -35.390625 L 4.921875 -34.175781 C 4.921875 -32.320312 4.996094 -30.894531 4.996094 -30.039062 C 5.136719 -28.46875 5.421875 -27.398438 5.851562 -26.757812 C 6.351562 -26.113281 7.207031 -25.6875 8.492188 -25.472656 C 9.347656 -25.402344 11.128906 -25.328125 13.699219 -25.328125 L 29.398438 -25.328125 C 29.324219 -24.542969 29.253906 -24.046875 29.183594 -23.761719 C 29.183594 -23.472656 29.109375 -23.261719 28.96875 -23.117188 C 28.824219 -22.976562 28.613281 -22.832031 28.328125 -22.761719 C 28.183594 -22.761719 27.753906 -22.691406 27.183594 -22.691406 L 12.273438 -22.691406 C 9.632812 -22.691406 7.777344 -22.617188 6.777344 -22.476562 C 5.566406 -22.332031 4.636719 -21.90625 3.996094 -21.261719 C 3.425781 -20.691406 2.925781 -19.550781 2.570312 -17.835938 C 2.425781 -16.980469 2.140625 -15.269531 1.785156 -12.699219 L 1.355469 -10.058594 C 1 -7.207031 0.785156 -5.28125 0.714844 -4.28125 L 0.714844 -3.851562 C 0.714844 -2.710938 0.855469 -1.925781 1.285156 -1.355469 C 1.710938 -0.855469 2.425781 -0.5 3.425781 -0.285156 C 4.421875 -0.144531 6.636719 0 10.058594 0 L 25.542969 0 C 29.109375 0 31.394531 -0.144531 32.394531 -0.285156 C 33.390625 -0.5 34.175781 -0.785156 34.746094 -1.214844 C 35.390625 -1.710938 35.890625 -2.496094 36.175781 -3.496094 C 36.53125 -4.496094 36.960938 -6.636719 37.386719 -10.058594 L 38.386719 -17.339844 L 39.527344 -25.328125 C 39.886719 -27.898438 40.097656 -29.609375 40.097656 -30.46875 C 40.171875 -30.894531 40.171875 -31.179688 40.171875 -31.464844 C 40.171875 -32.964844 39.8125 -33.964844 39.101562 -34.460938 C 38.671875 -34.820312 37.957031 -35.035156 36.960938 -35.175781 C 36.105469 -35.320312 34.605469 -35.390625 32.535156 -35.390625 Z M 13.558594 -12.699219 L 27.613281 -12.699219 C 27.542969 -11.914062 27.46875 -11.417969 27.398438 -11.128906 C 27.328125 -10.84375 27.257812 -10.558594 27.113281 -10.417969 C 27.042969 -10.273438 26.898438 -10.203125 26.613281 -10.132812 C 26.472656 -10.132812 26.042969 -10.058594 25.472656 -10.058594 L 11.488281 -10.058594 C 11.628906 -10.632812 11.703125 -11.058594 11.703125 -11.273438 C 11.773438 -11.84375 11.84375 -12.199219 11.988281 -12.34375 C 12.128906 -12.488281 12.273438 -12.628906 12.488281 -12.628906 C 12.628906 -12.699219 12.984375 -12.699219 13.558594 -12.699219 Z M 13.558594 -12.699219 "/></g></g></g><g fill="#ff00ff" fill-opacity="1"><g transform="translate(260.714168, 191.001908)"><g><path d="M 3.996094 -25.328125 L 1.285156 -5.992188 C 1.214844 -5.207031 1.140625 -4.710938 1.070312 -4.421875 C 1 -4.066406 0.925781 -3.710938 0.785156 -3.425781 C 0.640625 -2.996094 0.285156 -2.570312 -0.285156 -1.996094 C -0.570312 -1.640625 -1.140625 -1 -2.140625 0 L 0.855469 0 C 2.425781 0 3.496094 -0.0703125 4.136719 -0.0703125 C 5.636719 -0.144531 6.777344 -0.214844 7.492188 -0.355469 C 8.632812 -0.640625 9.417969 -1.070312 9.988281 -1.710938 C 10.417969 -2.285156 10.773438 -3.140625 11.058594 -4.28125 C 11.34375 -5.28125 11.628906 -7.207031 11.988281 -10.058594 L 13.699219 -22.402344 C 13.84375 -23.332031 13.984375 -23.902344 14.054688 -24.117188 C 14.199219 -24.542969 14.339844 -24.832031 14.484375 -24.972656 C 14.699219 -25.117188 15.054688 -25.257812 15.484375 -25.257812 C 15.839844 -25.328125 16.554688 -25.328125 17.625 -25.328125 L 29.753906 -25.328125 C 32.75 -25.328125 34.675781 -25.402344 35.605469 -25.472656 C 37.101562 -25.6875 38.171875 -25.972656 38.816406 -26.542969 C 39.527344 -27.113281 40.027344 -28.113281 40.382812 -29.46875 C 40.671875 -30.46875 40.957031 -32.394531 41.382812 -35.390625 L 13.984375 -35.390625 C 11.488281 -35.390625 9.773438 -35.320312 8.777344 -35.105469 C 7.707031 -34.960938 6.921875 -34.605469 6.351562 -34.035156 C 5.707031 -33.464844 5.207031 -32.320312 4.851562 -30.753906 C 4.710938 -29.894531 4.421875 -28.039062 3.996094 -25.328125 Z M 3.996094 -25.328125 "/></g></g></g><g fill="#ff00ff" fill-opacity="1"><g transform="translate(301.66733, 191.001908)"><g><path d="M 13.558594 -50.015625 C 14.269531 -49.445312 14.769531 -49.089844 14.984375 -48.804688 C 15.410156 -48.519531 15.625 -48.160156 15.769531 -47.875 C 15.910156 -47.664062 15.910156 -47.378906 15.910156 -47.019531 C 15.910156 -46.804688 15.910156 -46.378906 15.839844 -45.664062 L 14.414062 -35.390625 L 12.914062 -35.390625 C 10.84375 -35.390625 9.347656 -35.390625 8.417969 -35.246094 C 7.207031 -35.105469 6.277344 -34.820312 5.566406 -34.390625 C 4.78125 -33.820312 4.136719 -32.679688 3.710938 -30.894531 C 3.566406 -30.039062 3.28125 -28.183594 2.855469 -25.402344 L 12.984375 -25.402344 L 12.628906 -22.761719 L 11.203125 -12.699219 L 10.84375 -10.132812 C 10.417969 -7.492188 10.132812 -5.707031 9.988281 -4.78125 L 9.988281 -3.640625 C 9.988281 -2.78125 10.132812 -2.070312 10.417969 -1.570312 C 10.84375 -0.925781 11.703125 -0.5 12.984375 -0.285156 C 13.984375 -0.144531 16.054688 -0.0703125 19.121094 -0.0703125 L 25.542969 -0.0703125 C 28.539062 -0.0703125 30.539062 -0.144531 31.539062 -0.285156 C 32.820312 -0.5 33.75 -0.855469 34.320312 -1.425781 C 34.890625 -1.996094 35.390625 -2.925781 35.675781 -4.136719 C 35.960938 -5.136719 36.246094 -7.136719 36.675781 -10.132812 L 20.976562 -10.132812 L 21.332031 -12.699219 L 22.761719 -22.761719 L 23.117188 -25.402344 L 28.683594 -25.402344 C 31.824219 -25.402344 33.820312 -25.472656 34.820312 -25.542969 C 35.960938 -25.6875 36.746094 -25.972656 37.316406 -26.328125 C 38.171875 -26.898438 38.816406 -27.828125 39.171875 -29.253906 C 39.457031 -30.253906 39.8125 -32.25 40.242188 -35.390625 L 24.542969 -35.390625 L 25.1875 -40.027344 C 25.613281 -43.167969 25.757812 -45.164062 25.757812 -46.09375 C 25.757812 -47.378906 25.542969 -48.234375 25.117188 -48.804688 C 24.6875 -49.304688 23.832031 -49.660156 22.691406 -49.804688 C 22.117188 -49.945312 21.261719 -50.015625 20.121094 -50.015625 Z M 13.558594 -50.015625 "/></g></g></g><g fill="#00ffff" fill-opacity="1"><g transform="translate(134.286776, 191.001908)"><g><path d="M 3.496094 -25.328125 L 3.140625 -22.761719 C 2.710938 -19.90625 2.425781 -18.050781 2.285156 -17.125 L 2.285156 -16.269531 C 2.285156 -15.125 2.570312 -14.339844 2.996094 -13.84375 C 3.566406 -13.34375 4.496094 -12.984375 5.921875 -12.84375 C 6.777344 -12.773438 8.207031 -12.699219 10.132812 -12.699219 L 27.613281 -12.699219 C 27.542969 -12.058594 27.46875 -11.628906 27.398438 -11.34375 C 27.398438 -10.988281 27.257812 -10.703125 27.113281 -10.488281 C 26.96875 -10.347656 26.757812 -10.203125 26.472656 -10.132812 C 26.257812 -10.132812 25.6875 -10.058594 24.832031 -10.058594 L 1.355469 -10.058594 C 0.925781 -6.921875 0.714844 -4.921875 0.714844 -3.925781 C 0.714844 -2.855469 0.855469 -2.070312 1.214844 -1.5 C 1.640625 -1 2.285156 -0.640625 3.140625 -0.355469 C 4.136719 -0.214844 6.421875 -0.0703125 10.132812 -0.0703125 L 25.828125 -0.0703125 C 29.46875 -0.0703125 31.824219 -0.214844 32.820312 -0.355469 C 33.890625 -0.640625 34.675781 -1.070312 35.246094 -1.640625 C 35.675781 -2.210938 35.960938 -2.925781 36.246094 -3.851562 C 36.53125 -4.851562 36.960938 -6.921875 37.386719 -10.058594 L 37.746094 -12.699219 C 38.101562 -15.554688 38.316406 -17.410156 38.316406 -18.265625 L 38.316406 -18.695312 C 38.316406 -19.976562 38.101562 -20.90625 37.601562 -21.476562 C 37.101562 -22.046875 36.105469 -22.476562 34.535156 -22.617188 C 33.675781 -22.761719 31.824219 -22.761719 28.96875 -22.761719 L 13.269531 -22.761719 C 13.414062 -23.546875 13.484375 -24.046875 13.484375 -24.257812 C 13.558594 -24.542969 13.628906 -24.757812 13.769531 -24.902344 C 13.914062 -25.117188 14.199219 -25.257812 14.484375 -25.257812 C 14.769531 -25.328125 15.484375 -25.328125 16.480469 -25.328125 L 30.46875 -25.328125 C 32.75 -25.328125 34.390625 -25.402344 35.246094 -25.542969 C 36.246094 -25.6875 36.960938 -25.828125 37.53125 -26.113281 C 38.53125 -26.613281 39.242188 -27.542969 39.671875 -28.898438 C 40.027344 -29.894531 40.457031 -32.109375 40.882812 -35.390625 L 14.414062 -35.390625 C 11.84375 -35.390625 10.058594 -35.390625 9.0625 -35.246094 C 7.777344 -35.105469 6.851562 -34.820312 6.207031 -34.320312 C 5.492188 -33.75 4.921875 -32.820312 4.566406 -31.394531 C 4.28125 -30.394531 3.925781 -28.398438 3.496094 -25.328125 Z M 3.496094 -25.328125 "/></g></g></g><g fill="#00ffff" fill-opacity="1"><g transform="translate(174.811857, 191.001908)"><g><path d="M 4.28125 -25.328125 L 3.925781 -22.691406 L 2.496094 -12.628906 L 2.140625 -10.058594 L 1.425781 -4.996094 C 1.355469 -4.421875 1.285156 -3.996094 1.214844 -3.710938 C 1.070312 -3.351562 0.925781 -3.066406 0.714844 -2.710938 C 0.570312 -2.425781 0.214844 -1.996094 -0.355469 -1.570312 C -0.640625 -1.285156 -1.214844 -0.785156 -2.140625 0 L 1.140625 0 C 3.851562 0 5.636719 -0.0703125 6.5625 -0.144531 C 7.921875 -0.285156 8.917969 -0.640625 9.5625 -1.140625 C 10.273438 -1.640625 10.84375 -2.496094 11.128906 -3.78125 C 11.417969 -4.78125 11.84375 -6.851562 12.273438 -10.058594 L 12.628906 -12.628906 L 14.054688 -22.691406 C 14.199219 -23.402344 14.269531 -23.832031 14.269531 -24.046875 C 14.414062 -24.472656 14.484375 -24.832031 14.625 -24.972656 C 14.839844 -25.1875 15.125 -25.257812 15.484375 -25.257812 C 15.769531 -25.328125 16.269531 -25.328125 17.054688 -25.328125 L 16.695312 -22.691406 L 15.269531 -12.628906 L 14.914062 -10.058594 L 13.484375 0 C 17.195312 0 19.550781 -0.144531 20.550781 -0.355469 C 21.546875 -0.640625 22.261719 -1 22.691406 -1.425781 C 23.261719 -1.996094 23.761719 -2.925781 24.046875 -4.136719 C 24.332031 -5.136719 24.617188 -7.0625 25.042969 -10.058594 L 25.402344 -12.628906 L 26.828125 -22.691406 C 26.96875 -23.332031 27.042969 -23.761719 27.042969 -23.972656 C 27.183594 -24.472656 27.257812 -24.757812 27.398438 -24.902344 C 27.613281 -25.117188 27.898438 -25.257812 28.183594 -25.257812 C 28.46875 -25.328125 29.109375 -25.328125 30.109375 -25.328125 L 29.753906 -22.691406 L 28.328125 -12.628906 L 27.96875 -10.058594 L 26.542969 0 C 30.109375 0 32.394531 -0.144531 33.390625 -0.285156 C 34.605469 -0.570312 35.460938 -1 36.03125 -1.640625 C 36.601562 -2.355469 36.960938 -3.351562 37.246094 -4.710938 C 37.460938 -5.636719 37.746094 -7.421875 38.101562 -10.058594 L 38.457031 -12.628906 L 39.886719 -22.691406 L 40.242188 -25.328125 C 40.671875 -28.46875 40.882812 -30.46875 40.882812 -31.394531 C 40.882812 -32.679688 40.671875 -33.605469 40.171875 -34.175781 C 39.742188 -34.675781 39.027344 -35.035156 37.957031 -35.175781 C 37.101562 -35.320312 35.675781 -35.390625 33.675781 -35.390625 C 33.25 -35.390625 32.535156 -35.390625 31.539062 -35.320312 L 15.839844 -35.320312 C 14.839844 -35.390625 14.054688 -35.390625 13.628906 -35.390625 C 11.628906 -35.390625 10.203125 -35.320312 9.347656 -35.175781 C 8.132812 -35.035156 7.207031 -34.675781 6.636719 -34.105469 C 5.992188 -33.535156 5.492188 -32.464844 5.136719 -30.964844 C 4.996094 -30.039062 4.710938 -28.183594 4.28125 -25.328125 Z M 4.28125 -25.328125 "/></g></g></g><g fill="#00ffff" fill-opacity="1"><g transform="translate(216.335794, 191.001908)"><g><path d="M 32.535156 -35.390625 L 4.921875 -35.390625 L 4.921875 -34.175781 C 4.921875 -32.320312 4.996094 -30.894531 4.996094 -30.039062 C 5.136719 -28.46875 5.421875 -27.398438 5.851562 -26.757812 C 6.351562 -26.113281 7.207031 -25.6875 8.492188 -25.472656 C 9.347656 -25.402344 11.128906 -25.328125 13.699219 -25.328125 L 29.398438 -25.328125 C 29.324219 -24.542969 29.253906 -24.046875 29.183594 -23.761719 C 29.183594 -23.472656 29.109375 -23.261719 28.96875 -23.117188 C 28.824219 -22.976562 28.613281 -22.832031 28.328125 -22.761719 C 28.183594 -22.761719 27.753906 -22.691406 27.183594 -22.691406 L 12.273438 -22.691406 C 9.632812 -22.691406 7.777344 -22.617188 6.777344 -22.476562 C 5.566406 -22.332031 4.636719 -21.90625 3.996094 -21.261719 C 3.425781 -20.691406 2.925781 -19.550781 2.570312 -17.835938 C 2.425781 -16.980469 2.140625 -15.269531 1.785156 -12.699219 L 1.355469 -10.058594 C 1 -7.207031 0.785156 -5.28125 0.714844 -4.28125 L 0.714844 -3.851562 C 0.714844 -2.710938 0.855469 -1.925781 1.285156 -1.355469 C 1.710938 -0.855469 2.425781 -0.5 3.425781 -0.285156 C 4.421875 -0.144531 6.636719 0 10.058594 0 L 25.542969 0 C 29.109375 0 31.394531 -0.144531 32.394531 -0.285156 C 33.390625 -0.5 34.175781 -0.785156 34.746094 -1.214844 C 35.390625 -1.710938 35.890625 -2.496094 36.175781 -3.496094 C 36.53125 -4.496094 36.960938 -6.636719 37.386719 -10.058594 L 38.386719 -17.339844 L 39.527344 -25.328125 C 39.886719 -27.898438 40.097656 -29.609375 40.097656 -30.46875 C 40.171875 -30.894531 40.171875 -31.179688 40.171875 -31.464844 C 40.171875 -32.964844 39.8125 -33.964844 39.101562 -34.460938 C 38.671875 -34.820312 37.957031 -35.035156 36.960938 -35.175781 C 36.105469 -35.320312 34.605469 -35.390625 32.535156 -35.390625 Z M 13.558594 -12.699219 L 27.613281 -12.699219 C 27.542969 -11.914062 27.46875 -11.417969 27.398438 -11.128906 C 27.328125 -10.84375 27.257812 -10.558594 27.113281 -10.417969 C 27.042969 -10.273438 26.898438 -10.203125 26.613281 -10.132812 C 26.472656 -10.132812 26.042969 -10.058594 25.472656 -10.058594 L 11.488281 -10.058594 C 11.628906 -10.632812 11.703125 -11.058594 11.703125 -11.273438 C 11.773438 -11.84375 11.84375 -12.199219 11.988281 -12.34375 C 12.128906 -12.488281 12.273438 -12.628906 12.488281 -12.628906 C 12.628906 -12.699219 12.984375 -12.699219 13.558594 -12.699219 Z M 13.558594 -12.699219 "/></g></g></g><g fill="#00ffff" fill-opacity="1"><g transform="translate(257.146263, 191.001908)"><g><path d="M 3.996094 -25.328125 L 1.285156 -5.992188 C 1.214844 -5.207031 1.140625 -4.710938 1.070312 -4.421875 C 1 -4.066406 0.925781 -3.710938 0.785156 -3.425781 C 0.640625 -2.996094 0.285156 -2.570312 -0.285156 -1.996094 C -0.570312 -1.640625 -1.140625 -1 -2.140625 0 L 0.855469 0 C 2.425781 0 3.496094 -0.0703125 4.136719 -0.0703125 C 5.636719 -0.144531 6.777344 -0.214844 7.492188 -0.355469 C 8.632812 -0.640625 9.417969 -1.070312 9.988281 -1.710938 C 10.417969 -2.285156 10.773438 -3.140625 11.058594 -4.28125 C 11.34375 -5.28125 11.628906 -7.207031 11.988281 -10.058594 L 13.699219 -22.402344 C 13.84375 -23.332031 13.984375 -23.902344 14.054688 -24.117188 C 14.199219 -24.542969 14.339844 -24.832031 14.484375 -24.972656 C 14.699219 -25.117188 15.054688 -25.257812 15.484375 -25.257812 C 15.839844 -25.328125 16.554688 -25.328125 17.625 -25.328125 L 29.753906 -25.328125 C 32.75 -25.328125 34.675781 -25.402344 35.605469 -25.472656 C 37.101562 -25.6875 38.171875 -25.972656 38.816406 -26.542969 C 39.527344 -27.113281 40.027344 -28.113281 40.382812 -29.46875 C 40.671875 -30.46875 40.957031 -32.394531 41.382812 -35.390625 L 13.984375 -35.390625 C 11.488281 -35.390625 9.773438 -35.320312 8.777344 -35.105469 C 7.707031 -34.960938 6.921875 -34.605469 6.351562 -34.035156 C 5.707031 -33.464844 5.207031 -32.320312 4.851562 -30.753906 C 4.710938 -29.894531 4.421875 -28.039062 3.996094 -25.328125 Z M 3.996094 -25.328125 "/></g></g></g><g fill="#00ffff" fill-opacity="1"><g transform="translate(298.099426, 191.001908)"><g><path d="M 13.558594 -50.015625 C 14.269531 -49.445312 14.769531 -49.089844 14.984375 -48.804688 C 15.410156 -48.519531 15.625 -48.160156 15.769531 -47.875 C 15.910156 -47.664062 15.910156 -47.378906 15.910156 -47.019531 C 15.910156 -46.804688 15.910156 -46.378906 15.839844 -45.664062 L 14.414062 -35.390625 L 12.914062 -35.390625 C 10.84375 -35.390625 9.347656 -35.390625 8.417969 -35.246094 C 7.207031 -35.105469 6.277344 -34.820312 5.566406 -34.390625 C 4.78125 -33.820312 4.136719 -32.679688 3.710938 -30.894531 C 3.566406 -30.039062 3.28125 -28.183594 2.855469 -25.402344 L 12.984375 -25.402344 L 12.628906 -22.761719 L 11.203125 -12.699219 L 10.84375 -10.132812 C 10.417969 -7.492188 10.132812 -5.707031 9.988281 -4.78125 L 9.988281 -3.640625 C 9.988281 -2.78125 10.132812 -2.070312 10.417969 -1.570312 C 10.84375 -0.925781 11.703125 -0.5 12.984375 -0.285156 C 13.984375 -0.144531 16.054688 -0.0703125 19.121094 -0.0703125 L 25.542969 -0.0703125 C 28.539062 -0.0703125 30.539062 -0.144531 31.539062 -0.285156 C 32.820312 -0.5 33.75 -0.855469 34.320312 -1.425781 C 34.890625 -1.996094 35.390625 -2.925781 35.675781 -4.136719 C 35.960938 -5.136719 36.246094 -7.136719 36.675781 -10.132812 L 20.976562 -10.132812 L 21.332031 -12.699219 L 22.761719 -22.761719 L 23.117188 -25.402344 L 28.683594 -25.402344 C 31.824219 -25.402344 33.820312 -25.472656 34.820312 -25.542969 C 35.960938 -25.6875 36.746094 -25.972656 37.316406 -26.328125 C 38.171875 -26.898438 38.816406 -27.828125 39.171875 -29.253906 C 39.457031 -30.253906 39.8125 -32.25 40.242188 -35.390625 L 24.542969 -35.390625 L 25.1875 -40.027344 C 25.613281 -43.167969 25.757812 -45.164062 25.757812 -46.09375 C 25.757812 -47.378906 25.542969 -48.234375 25.117188 -48.804688 C 24.6875 -49.304688 23.832031 -49.660156 22.691406 -49.804688 C 22.117188 -49.945312 21.261719 -50.015625 20.121094 -50.015625 Z M 13.558594 -50.015625 "/></g></g></g><g fill="#000000" fill-opacity="1"><g transform="translate(136.070729, 191.001908)"><g><path d="M 3.496094 -25.328125 L 3.140625 -22.761719 C 2.710938 -19.90625 2.425781 -18.050781 2.285156 -17.125 L 2.285156 -16.269531 C 2.285156 -15.125 2.570312 -14.339844 2.996094 -13.84375 C 3.566406 -13.34375 4.496094 -12.984375 5.921875 -12.84375 C 6.777344 -12.773438 8.207031 -12.699219 10.132812 -12.699219 L 27.613281 -12.699219 C 27.542969 -12.058594 27.46875 -11.628906 27.398438 -11.34375 C 27.398438 -10.988281 27.257812 -10.703125 27.113281 -10.488281 C 26.96875 -10.347656 26.757812 -10.203125 26.472656 -10.132812 C 26.257812 -10.132812 25.6875 -10.058594 24.832031 -10.058594 L 1.355469 -10.058594 C 0.925781 -6.921875 0.714844 -4.921875 0.714844 -3.925781 C 0.714844 -2.855469 0.855469 -2.070312 1.214844 -1.5 C 1.640625 -1 2.285156 -0.640625 3.140625 -0.355469 C 4.136719 -0.214844 6.421875 -0.0703125 10.132812 -0.0703125 L 25.828125 -0.0703125 C 29.46875 -0.0703125 31.824219 -0.214844 32.820312 -0.355469 C 33.890625 -0.640625 34.675781 -1.070312 35.246094 -1.640625 C 35.675781 -2.210938 35.960938 -2.925781 36.246094 -3.851562 C 36.53125 -4.851562 36.960938 -6.921875 37.386719 -10.058594 L 37.746094 -12.699219 C 38.101562 -15.554688 38.316406 -17.410156 38.316406 -18.265625 L 38.316406 -18.695312 C 38.316406 -19.976562 38.101562 -20.90625 37.601562 -21.476562 C 37.101562 -22.046875 36.105469 -22.476562 34.535156 -22.617188 C 33.675781 -22.761719 31.824219 -22.761719 28.96875 -22.761719 L 13.269531 -22.761719 C 13.414062 -23.546875 13.484375 -24.046875 13.484375 -24.257812 C 13.558594 -24.542969 13.628906 -24.757812 13.769531 -24.902344 C 13.914062 -25.117188 14.199219 -25.257812 14.484375 -25.257812 C 14.769531 -25.328125 15.484375 -25.328125 16.480469 -25.328125 L 30.46875 -25.328125 C 32.75 -25.328125 34.390625 -25.402344 35.246094 -25.542969 C 36.246094 -25.6875 36.960938 -25.828125 37.53125 -26.113281 C 38.53125 -26.613281 39.242188 -27.542969 39.671875 -28.898438 C 40.027344 -29.894531 40.457031 -32.109375 40.882812 -35.390625 L 14.414062 -35.390625 C 11.84375 -35.390625 10.058594 -35.390625 9.0625 -35.246094 C 7.777344 -35.105469 6.851562 -34.820312 6.207031 -34.320312 C 5.492188 -33.75 4.921875 -32.820312 4.566406 -31.394531 C 4.28125 -30.394531 3.925781 -28.398438 3.496094 -25.328125 Z M 3.496094 -25.328125 "/></g></g></g><g fill="#000000" fill-opacity="1"><g transform="translate(176.595811, 191.001908)"><g><path d="M 4.28125 -25.328125 L 3.925781 -22.691406 L 2.496094 -12.628906 L 2.140625 -10.058594 L 1.425781 -4.996094 C 1.355469 -4.421875 1.285156 -3.996094 1.214844 -3.710938 C 1.070312 -3.351562 0.925781 -3.066406 0.714844 -2.710938 C 0.570312 -2.425781 0.214844 -1.996094 -0.355469 -1.570312 C -0.640625 -1.285156 -1.214844 -0.785156 -2.140625 0 L 1.140625 0 C 3.851562 0 5.636719 -0.0703125 6.5625 -0.144531 C 7.921875 -0.285156 8.917969 -0.640625 9.5625 -1.140625 C 10.273438 -1.640625 10.84375 -2.496094 11.128906 -3.78125 C 11.417969 -4.78125 11.84375 -6.851562 12.273438 -10.058594 L 12.628906 -12.628906 L 14.054688 -22.691406 C 14.199219 -23.402344 14.269531 -23.832031 14.269531 -24.046875 C 14.414062 -24.472656 14.484375 -24.832031 14.625 -24.972656 C 14.839844 -25.1875 15.125 -25.257812 15.484375 -25.257812 C 15.769531 -25.328125 16.269531 -25.328125 17.054688 -25.328125 L 16.695312 -22.691406 L 15.269531 -12.628906 L 14.914062 -10.058594 L 13.484375 0 C 17.195312 0 19.550781 -0.144531 20.550781 -0.355469 C 21.546875 -0.640625 22.261719 -1 22.691406 -1.425781 C 23.261719 -1.996094 23.761719 -2.925781 24.046875 -4.136719 C 24.332031 -5.136719 24.617188 -7.0625 25.042969 -10.058594 L 25.402344 -12.628906 L 26.828125 -22.691406 C 26.96875 -23.332031 27.042969 -23.761719 27.042969 -23.972656 C 27.183594 -24.472656 27.257812 -24.757812 27.398438 -24.902344 C 27.613281 -25.117188 27.898438 -25.257812 28.183594 -25.257812 C 28.46875 -25.328125 29.109375 -25.328125 30.109375 -25.328125 L 29.753906 -22.691406 L 28.328125 -12.628906 L 27.96875 -10.058594 L 26.542969 0 C 30.109375 0 32.394531 -0.144531 33.390625 -0.285156 C 34.605469 -0.570312 35.460938 -1 36.03125 -1.640625 C 36.601562 -2.355469 36.960938 -3.351562 37.246094 -4.710938 C 37.460938 -5.636719 37.746094 -7.421875 38.101562 -10.058594 L 38.457031 -12.628906 L 39.886719 -22.691406 L 40.242188 -25.328125 C 40.671875 -28.46875 40.882812 -30.46875 40.882812 -31.394531 C 40.882812 -32.679688 40.671875 -33.605469 40.171875 -34.175781 C 39.742188 -34.675781 39.027344 -35.035156 37.957031 -35.175781 C 37.101562 -35.320312 35.675781 -35.390625 33.675781 -35.390625 C 33.25 -35.390625 32.535156 -35.390625 31.539062 -35.320312 L 15.839844 -35.320312 C 14.839844 -35.390625 14.054688 -35.390625 13.628906 -35.390625 C 11.628906 -35.390625 10.203125 -35.320312 9.347656 -35.175781 C 8.132812 -35.035156 7.207031 -34.675781 6.636719 -34.105469 C 5.992188 -33.535156 5.492188 -32.464844 5.136719 -30.964844 C 4.996094 -30.039062 4.710938 -28.183594 4.28125 -25.328125 Z M 4.28125 -25.328125 "/></g></g></g><g fill="#000000" fill-opacity="1"><g transform="translate(218.119748, 191.001908)"><g><path d="M 32.535156 -35.390625 L 4.921875 -35.390625 L 4.921875 -34.175781 C 4.921875 -32.320312 4.996094 -30.894531 4.996094 -30.039062 C 5.136719 -28.46875 5.421875 -27.398438 5.851562 -26.757812 C 6.351562 -26.113281 7.207031 -25.6875 8.492188 -25.472656 C 9.347656 -25.402344 11.128906 -25.328125 13.699219 -25.328125 L 29.398438 -25.328125 C 29.324219 -24.542969 29.253906 -24.046875 29.183594 -23.761719 C 29.183594 -23.472656 29.109375 -23.261719 28.96875 -23.117188 C 28.824219 -22.976562 28.613281 -22.832031 28.328125 -22.761719 C 28.183594 -22.761719 27.753906 -22.691406 27.183594 -22.691406 L 12.273438 -22.691406 C 9.632812 -22.691406 7.777344 -22.617188 6.777344 -22.476562 C 5.566406 -22.332031 4.636719 -21.90625 3.996094 -21.261719 C 3.425781 -20.691406 2.925781 -19.550781 2.570312 -17.835938 C 2.425781 -16.980469 2.140625 -15.269531 1.785156 -12.699219 L 1.355469 -10.058594 C 1 -7.207031 0.785156 -5.28125 0.714844 -4.28125 L 0.714844 -3.851562 C 0.714844 -2.710938 0.855469 -1.925781 1.285156 -1.355469 C 1.710938 -0.855469 2.425781 -0.5 3.425781 -0.285156 C 4.421875 -0.144531 6.636719 0 10.058594 0 L 25.542969 0 C 29.109375 0 31.394531 -0.144531 32.394531 -0.285156 C 33.390625 -0.5 34.175781 -0.785156 34.746094 -1.214844 C 35.390625 -1.710938 35.890625 -2.496094 36.175781 -3.496094 C 36.53125 -4.496094 36.960938 -6.636719 37.386719 -10.058594 L 38.386719 -17.339844 L 39.527344 -25.328125 C 39.886719 -27.898438 40.097656 -29.609375 40.097656 -30.46875 C 40.171875 -30.894531 40.171875 -31.179688 40.171875 -31.464844 C 40.171875 -32.964844 39.8125 -33.964844 39.101562 -34.460938 C 38.671875 -34.820312 37.957031 -35.035156 36.960938 -35.175781 C 36.105469 -35.320312 34.605469 -35.390625 32.535156 -35.390625 Z M 13.558594 -12.699219 L 27.613281 -12.699219 C 27.542969 -11.914062 27.46875 -11.417969 27.398438 -11.128906 C 27.328125 -10.84375 27.257812 -10.558594 27.113281 -10.417969 C 27.042969 -10.273438 26.898438 -10.203125 26.613281 -10.132812 C 26.472656 -10.132812 26.042969 -10.058594 25.472656 -10.058594 L 11.488281 -10.058594 C 11.628906 -10.632812 11.703125 -11.058594 11.703125 -11.273438 C 11.773438 -11.84375 11.84375 -12.199219 11.988281 -12.34375 C 12.128906 -12.488281 12.273438 -12.628906 12.488281 -12.628906 C 12.628906 -12.699219 12.984375 -12.699219 13.558594 -12.699219 Z M 13.558594 -12.699219 "/></g></g></g><g fill="#000000" fill-opacity="1"><g transform="translate(258.930217, 191.001908)"><g><path d="M 3.996094 -25.328125 L 1.285156 -5.992188 C 1.214844 -5.207031 1.140625 -4.710938 1.070312 -4.421875 C 1 -4.066406 0.925781 -3.710938 0.785156 -3.425781 C 0.640625 -2.996094 0.285156 -2.570312 -0.285156 -1.996094 C -0.570312 -1.640625 -1.140625 -1 -2.140625 0 L 0.855469 0 C 2.425781 0 3.496094 -0.0703125 4.136719 -0.0703125 C 5.636719 -0.144531 6.777344 -0.214844 7.492188 -0.355469 C 8.632812 -0.640625 9.417969 -1.070312 9.988281 -1.710938 C 10.417969 -2.285156 10.773438 -3.140625 11.058594 -4.28125 C 11.34375 -5.28125 11.628906 -7.207031 11.988281 -10.058594 L 13.699219 -22.402344 C 13.84375 -23.332031 13.984375 -23.902344 14.054688 -24.117188 C 14.199219 -24.542969 14.339844 -24.832031 14.484375 -24.972656 C 14.699219 -25.117188 15.054688 -25.257812 15.484375 -25.257812 C 15.839844 -25.328125 16.554688 -25.328125 17.625 -25.328125 L 29.753906 -25.328125 C 32.75 -25.328125 34.675781 -25.402344 35.605469 -25.472656 C 37.101562 -25.6875 38.171875 -25.972656 38.816406 -26.542969 C 39.527344 -27.113281 40.027344 -28.113281 40.382812 -29.46875 C 40.671875 -30.46875 40.957031 -32.394531 41.382812 -35.390625 L 13.984375 -35.390625 C 11.488281 -35.390625 9.773438 -35.320312 8.777344 -35.105469 C 7.707031 -34.960938 6.921875 -34.605469 6.351562 -34.035156 C 5.707031 -33.464844 5.207031 -32.320312 4.851562 -30.753906 C 4.710938 -29.894531 4.421875 -28.039062 3.996094 -25.328125 Z M 3.996094 -25.328125 "/></g></g></g><g fill="#000000" fill-opacity="1"><g transform="translate(299.883379, 191.001908)"><g><path d="M 13.558594 -50.015625 C 14.269531 -49.445312 14.769531 -49.089844 14.984375 -48.804688 C 15.410156 -48.519531 15.625 -48.160156 15.769531 -47.875 C 15.910156 -47.664062 15.910156 -47.378906 15.910156 -47.019531 C 15.910156 -46.804688 15.910156 -46.378906 15.839844 -45.664062 L 14.414062 -35.390625 L 12.914062 -35.390625 C 10.84375 -35.390625 9.347656 -35.390625 8.417969 -35.246094 C 7.207031 -35.105469 6.277344 -34.820312 5.566406 -34.390625 C 4.78125 -33.820312 4.136719 -32.679688 3.710938 -30.894531 C 3.566406 -30.039062 3.28125 -28.183594 2.855469 -25.402344 L 12.984375 -25.402344 L 12.628906 -22.761719 L 11.203125 -12.699219 L 10.84375 -10.132812 C 10.417969 -7.492188 10.132812 -5.707031 9.988281 -4.78125 L 9.988281 -3.640625 C 9.988281 -2.78125 10.132812 -2.070312 10.417969 -1.570312 C 10.84375 -0.925781 11.703125 -0.5 12.984375 -0.285156 C 13.984375 -0.144531 16.054688 -0.0703125 19.121094 -0.0703125 L 25.542969 -0.0703125 C 28.539062 -0.0703125 30.539062 -0.144531 31.539062 -0.285156 C 32.820312 -0.5 33.75 -0.855469 34.320312 -1.425781 C 34.890625 -1.996094 35.390625 -2.925781 35.675781 -4.136719 C 35.960938 -5.136719 36.246094 -7.136719 36.675781 -10.132812 L 20.976562 -10.132812 L 21.332031 -12.699219 L 22.761719 -22.761719 L 23.117188 -25.402344 L 28.683594 -25.402344 C 31.824219 -25.402344 33.820312 -25.472656 34.820312 -25.542969 C 35.960938 -25.6875 36.746094 -25.972656 37.316406 -26.328125 C 38.171875 -26.898438 38.816406 -27.828125 39.171875 -29.253906 C 39.457031 -30.253906 39.8125 -32.25 40.242188 -35.390625 L 24.542969 -35.390625 L 25.1875 -40.027344 C 25.613281 -43.167969 25.757812 -45.164062 25.757812 -46.09375 C 25.757812 -47.378906 25.542969 -48.234375 25.117188 -48.804688 C 24.6875 -49.304688 23.832031 -49.660156 22.691406 -49.804688 C 22.117188 -49.945312 21.261719 -50.015625 20.121094 -50.015625 Z M 13.558594 -50.015625 "/></g></g></g><g fill="#ff00ff" fill-opacity="1"><g transform="translate(129.438051, 243.985281)"><g><path d="M 2.210938 -35.320312 C 2.996094 -34.746094 3.496094 -34.320312 3.710938 -34.035156 C 4.066406 -33.75 4.28125 -33.464844 4.351562 -33.179688 C 4.421875 -32.964844 4.496094 -32.75 4.496094 -32.394531 L 4.496094 -32.035156 C 4.496094 -31.894531 4.421875 -31.539062 4.351562 -31.039062 L 3.566406 -25.328125 C 3.425781 -23.972656 3.140625 -21.546875 2.570312 -18.050781 C 2.070312 -14.625 1.710938 -11.914062 1.425781 -10.058594 C 1.070312 -7.632812 0.855469 -5.992188 0.785156 -5.066406 C 0.785156 -4.636719 0.714844 -4.210938 0.714844 -3.78125 C 0.714844 -2.925781 0.855469 -2.285156 1.070312 -1.785156 C 1.425781 -1.070312 2.140625 -0.570312 3.28125 -0.285156 C 4.28125 -0.144531 5.992188 0 8.5625 0 L 27.398438 0 C 29.824219 0 31.539062 -0.0703125 32.464844 -0.214844 C 33.75 -0.5 34.675781 -0.925781 35.246094 -1.570312 C 35.816406 -2.140625 36.175781 -3.066406 36.460938 -4.351562 C 36.746094 -5.351562 37.03125 -7.207031 37.386719 -10.058594 L 39.527344 -25.328125 C 39.886719 -27.683594 40.097656 -29.253906 40.097656 -30.109375 C 40.171875 -30.609375 40.171875 -31.039062 40.171875 -31.394531 C 40.171875 -32.464844 40.027344 -33.25 39.742188 -33.75 C 39.3125 -34.535156 38.316406 -35.035156 36.746094 -35.175781 C 35.890625 -35.320312 33.890625 -35.320312 30.824219 -35.320312 L 29.398438 -25.328125 L 27.257812 -10.058594 L 14.054688 -10.058594 C 13.128906 -10.058594 12.558594 -10.058594 12.273438 -10.132812 C 11.988281 -10.203125 11.84375 -10.347656 11.773438 -10.558594 C 11.773438 -10.773438 11.703125 -10.988281 11.703125 -11.273438 C 11.773438 -11.558594 11.84375 -11.988281 11.914062 -12.558594 L 13.699219 -25.328125 C 14.054688 -27.542969 14.269531 -28.898438 14.269531 -29.398438 C 14.414062 -30.46875 14.484375 -31.25 14.484375 -31.824219 C 14.484375 -33.105469 14.199219 -33.964844 13.558594 -34.390625 C 13.058594 -34.820312 12.128906 -35.105469 10.84375 -35.175781 C 10.273438 -35.320312 9.417969 -35.320312 8.417969 -35.320312 Z M 2.210938 -35.320312 "/></g></g></g><g fill="#ff00ff" fill-opacity="1"><g transform="translate(170.24852, 243.985281)"><g><path d="M 4.28125 -25.328125 L 3.925781 -22.691406 L 2.496094 -12.628906 L 2.140625 -10.058594 L 1.425781 -4.996094 C 1.355469 -4.421875 1.285156 -3.996094 1.214844 -3.710938 C 1.070312 -3.351562 0.925781 -3.066406 0.714844 -2.710938 C 0.570312 -2.425781 0.214844 -1.996094 -0.355469 -1.570312 C -0.640625 -1.285156 -1.214844 -0.785156 -2.140625 0 L 1.140625 0 C 3.851562 0 5.636719 -0.0703125 6.5625 -0.144531 C 7.921875 -0.285156 8.917969 -0.640625 9.5625 -1.140625 C 10.273438 -1.640625 10.84375 -2.496094 11.128906 -3.78125 C 11.417969 -4.78125 11.84375 -6.851562 12.273438 -10.058594 L 12.628906 -12.628906 L 14.054688 -22.691406 C 14.199219 -23.402344 14.269531 -23.832031 14.269531 -24.046875 C 14.414062 -24.472656 14.484375 -24.832031 14.625 -24.972656 C 14.839844 -25.1875 15.125 -25.257812 15.484375 -25.257812 C 15.769531 -25.328125 16.269531 -25.328125 17.054688 -25.328125 L 16.695312 -22.691406 L 15.269531 -12.628906 L 14.914062 -10.058594 L 13.484375 0 C 17.195312 0 19.550781 -0.144531 20.550781 -0.355469 C 21.546875 -0.640625 22.261719 -1 22.691406 -1.425781 C 23.261719 -1.996094 23.761719 -2.925781 24.046875 -4.136719 C 24.332031 -5.136719 24.617188 -7.0625 25.042969 -10.058594 L 25.402344 -12.628906 L 26.828125 -22.691406 C 26.96875 -23.332031 27.042969 -23.761719 27.042969 -23.972656 C 27.183594 -24.472656 27.257812 -24.757812 27.398438 -24.902344 C 27.613281 -25.117188 27.898438 -25.257812 28.183594 -25.257812 C 28.46875 -25.328125 29.109375 -25.328125 30.109375 -25.328125 L 29.753906 -22.691406 L 28.328125 -12.628906 L 27.96875 -10.058594 L 26.542969 0 C 30.109375 0 32.394531 -0.144531 33.390625 -0.285156 C 34.605469 -0.570312 35.460938 -1 36.03125 -1.640625 C 36.601562 -2.355469 36.960938 -3.351562 37.246094 -4.710938 C 37.460938 -5.636719 37.746094 -7.421875 38.101562 -10.058594 L 38.457031 -12.628906 L 39.886719 -22.691406 L 40.242188 -25.328125 C 40.671875 -28.46875 40.882812 -30.46875 40.882812 -31.394531 C 40.882812 -32.679688 40.671875 -33.605469 40.171875 -34.175781 C 39.742188 -34.675781 39.027344 -35.035156 37.957031 -35.175781 C 37.101562 -35.320312 35.675781 -35.390625 33.675781 -35.390625 C 33.25 -35.390625 32.535156 -35.390625 31.539062 -35.320312 L 15.839844 -35.320312 C 14.839844 -35.390625 14.054688 -35.390625 13.628906 -35.390625 C 11.628906 -35.390625 10.203125 -35.320312 9.347656 -35.175781 C 8.132812 -35.035156 7.207031 -34.675781 6.636719 -34.105469 C 5.992188 -33.535156 5.492188 -32.464844 5.136719 -30.964844 C 4.996094 -30.039062 4.710938 -28.183594 4.28125 -25.328125 Z M 4.28125 -25.328125 "/></g></g></g><g fill="#ff00ff" fill-opacity="1"><g transform="translate(211.772457, 243.985281)"><g><path d="M 8.988281 8.492188 L 10.417969 0 L 27.042969 0 C 29.683594 0 31.464844 -0.0703125 32.464844 -0.214844 C 33.75 -0.429688 34.675781 -0.785156 35.246094 -1.355469 C 35.960938 -1.996094 36.460938 -3.066406 36.746094 -4.566406 C 36.960938 -5.566406 37.246094 -7.347656 37.601562 -10.058594 C 38.816406 -18.550781 39.527344 -23.617188 39.742188 -25.328125 C 40.171875 -27.753906 40.382812 -29.324219 40.382812 -30.179688 C 40.457031 -30.753906 40.457031 -31.179688 40.457031 -31.539062 C 40.457031 -32.394531 40.382812 -33.105469 40.097656 -33.605469 C 39.671875 -34.605469 38.316406 -35.105469 36.105469 -35.246094 C 35.246094 -35.390625 33.605469 -35.390625 31.179688 -35.390625 L 15.125 -35.390625 C 12.34375 -35.390625 10.417969 -35.320312 9.417969 -35.175781 C 7.707031 -35.035156 6.492188 -34.535156 5.78125 -33.675781 C 5.28125 -33.035156 4.851562 -31.964844 4.496094 -30.394531 C 4.351562 -29.539062 4.136719 -27.898438 3.78125 -25.328125 L 3.425781 -22.691406 L 0.285156 0 L -1 10.058594 C -1.070312 10.632812 -1.140625 10.988281 -1.214844 11.203125 C -1.285156 11.488281 -1.425781 11.84375 -1.710938 12.128906 C -1.855469 12.414062 -2.140625 12.699219 -2.570312 13.128906 C -2.855469 13.414062 -3.425781 13.84375 -4.28125 14.554688 L -0.855469 14.554688 C 0.144531 14.554688 1 14.484375 1.710938 14.414062 C 2.855469 14.269531 3.78125 14.199219 4.566406 13.914062 C 5.421875 13.628906 6.066406 13.269531 6.5625 12.914062 C 7.347656 12.34375 7.921875 11.558594 8.347656 10.703125 C 8.632812 10.058594 8.847656 9.347656 8.988281 8.492188 Z M 11.773438 -10.058594 L 13.558594 -22.691406 C 13.699219 -23.402344 13.84375 -23.902344 13.914062 -24.117188 C 14.054688 -24.542969 14.128906 -24.757812 14.269531 -24.902344 C 14.484375 -25.117188 14.839844 -25.257812 15.269531 -25.257812 C 15.554688 -25.328125 16.054688 -25.328125 16.839844 -25.328125 L 29.609375 -25.328125 L 27.828125 -12.628906 C 27.753906 -11.988281 27.683594 -11.558594 27.613281 -11.273438 C 27.542969 -10.917969 27.398438 -10.632812 27.183594 -10.417969 C 27.042969 -10.347656 26.898438 -10.273438 26.683594 -10.132812 C 26.542969 -10.132812 26.328125 -10.132812 26.042969 -10.058594 Z M 11.773438 -10.058594 "/></g></g></g><g fill="#ff00ff" fill-opacity="1"><g transform="translate(252.868313, 243.985281)"><g><path d="M 17.835938 -49.945312 C 14.554688 -49.945312 12.34375 -49.875 11.273438 -49.730469 C 9.988281 -49.515625 9.0625 -49.019531 8.417969 -48.304688 C 7.921875 -47.734375 7.492188 -46.664062 7.207031 -45.238281 C 6.992188 -44.378906 6.707031 -42.597656 6.277344 -39.886719 L 6.066406 -37.957031 L 16.195312 -37.957031 Z M 5.707031 -35.390625 L 1.425781 -5.207031 C 1.355469 -4.496094 1.285156 -4.066406 1.140625 -3.78125 C 1.070312 -3.425781 0.925781 -3.066406 0.640625 -2.710938 C 0.429688 -2.425781 0.0703125 -2.070312 -0.5 -1.5 C -0.785156 -1.214844 -1.285156 -0.714844 -2.140625 0 L 1.214844 0 C 3.78125 0 5.566406 -0.0703125 6.492188 -0.144531 C 8.0625 -0.285156 9.203125 -0.714844 9.917969 -1.355469 C 10.558594 -1.996094 11.058594 -3.066406 11.34375 -4.566406 C 11.628906 -5.492188 11.914062 -7.277344 12.273438 -9.988281 L 15.839844 -35.390625 Z M 5.707031 -35.390625 "/></g></g></g><g fill="#ff00ff" fill-opacity="1"><g transform="translate(269.278122, 243.985281)"><g><path d="M 3.996094 -25.328125 L 1.285156 -5.992188 C 1.214844 -5.207031 1.140625 -4.710938 1.070312 -4.421875 C 1 -4.066406 0.925781 -3.710938 0.785156 -3.425781 C 0.640625 -2.996094 0.285156 -2.570312 -0.285156 -1.996094 C -0.570312 -1.640625 -1.140625 -1 -2.140625 0 L 0.855469 0 C 2.425781 0 3.496094 -0.0703125 4.136719 -0.0703125 C 5.636719 -0.144531 6.777344 -0.214844 7.492188 -0.355469 C 8.632812 -0.640625 9.417969 -1.070312 9.988281 -1.710938 C 10.417969 -2.285156 10.773438 -3.140625 11.058594 -4.28125 C 11.34375 -5.28125 11.628906 -7.207031 11.988281 -10.058594 L 13.699219 -22.402344 C 13.84375 -23.332031 13.984375 -23.902344 14.054688 -24.117188 C 14.199219 -24.542969 14.339844 -24.832031 14.484375 -24.972656 C 14.699219 -25.117188 15.054688 -25.257812 15.484375 -25.257812 C 15.839844 -25.328125 16.554688 -25.328125 17.625 -25.328125 L 29.753906 -25.328125 C 32.75 -25.328125 34.675781 -25.402344 35.605469 -25.472656 C 37.101562 -25.6875 38.171875 -25.972656 38.816406 -26.542969 C 39.527344 -27.113281 40.027344 -28.113281 40.382812 -29.46875 C 40.671875 -30.46875 40.957031 -32.394531 41.382812 -35.390625 L 13.984375 -35.390625 C 11.488281 -35.390625 9.773438 -35.320312 8.777344 -35.105469 C 7.707031 -34.960938 6.921875 -34.605469 6.351562 -34.035156 C 5.707031 -33.464844 5.207031 -32.320312 4.851562 -30.753906 C 4.710938 -29.894531 4.421875 -28.039062 3.996094 -25.328125 Z M 3.996094 -25.328125 "/></g></g></g><g fill="#ff00ff" fill-opacity="1"><g transform="translate(310.231284, 243.985281)"><g><path d="M 15.269531 -35.320312 C 11.988281 -35.320312 9.847656 -35.320312 8.847656 -35.175781 C 7.5625 -35.035156 6.5625 -34.605469 5.851562 -33.964844 C 5.207031 -33.320312 4.710938 -32.179688 4.351562 -30.46875 L 3.496094 -25.328125 L 1.355469 -10.058594 C 1 -7.207031 0.785156 -5.351562 0.714844 -4.421875 L 0.714844 -3.851562 C 0.714844 -2.925781 0.855469 -2.210938 1.140625 -1.640625 C 1.570312 -1 2.285156 -0.570312 3.28125 -0.285156 C 4.28125 -0.144531 6.136719 0 8.988281 0 L 35.960938 0 L 35.960938 -1.214844 C 35.960938 -3.28125 35.960938 -4.78125 35.816406 -5.636719 C 35.746094 -7.136719 35.460938 -8.207031 34.890625 -8.777344 C 34.460938 -9.347656 33.675781 -9.703125 32.535156 -9.847656 C 31.75 -9.988281 29.96875 -10.058594 27.183594 -10.058594 L 11.488281 -10.058594 C 11.628906 -10.773438 11.703125 -11.273438 11.703125 -11.488281 C 11.773438 -11.914062 11.84375 -12.199219 11.988281 -12.34375 C 12.128906 -12.488281 12.34375 -12.628906 12.558594 -12.628906 L 28.613281 -12.628906 C 31.109375 -12.628906 32.820312 -12.699219 33.75 -12.84375 C 35.175781 -13.058594 36.175781 -13.484375 36.816406 -14.054688 C 37.386719 -14.625 37.886719 -15.625 38.171875 -16.980469 C 38.457031 -17.980469 38.742188 -19.835938 39.101562 -22.691406 L 39.527344 -25.328125 C 39.8125 -27.613281 40.027344 -29.109375 40.097656 -29.96875 C 40.171875 -30.539062 40.171875 -31.039062 40.171875 -31.464844 C 40.171875 -32.894531 39.886719 -33.890625 39.171875 -34.390625 C 38.601562 -34.890625 37.53125 -35.175781 35.960938 -35.246094 C 35.105469 -35.320312 33.390625 -35.320312 30.824219 -35.320312 Z M 15.410156 -25.328125 L 29.324219 -25.328125 C 29.253906 -24.472656 29.183594 -23.972656 29.109375 -23.6875 C 29.109375 -23.402344 29.039062 -23.1875 28.898438 -23.046875 C 28.753906 -22.902344 28.46875 -22.761719 28.039062 -22.691406 L 13.269531 -22.691406 C 13.414062 -23.546875 13.484375 -24.046875 13.484375 -24.257812 C 13.628906 -24.617188 13.699219 -24.757812 13.769531 -24.902344 C 13.914062 -25.042969 14.054688 -25.1875 14.199219 -25.257812 C 14.339844 -25.328125 14.769531 -25.328125 15.410156 -25.328125 Z M 15.410156 -25.328125 "/></g></g></g><g fill="#00ffff" fill-opacity="1"><g transform="translate(125.870146, 243.985281)"><g><path d="M 2.210938 -35.320312 C 2.996094 -34.746094 3.496094 -34.320312 3.710938 -34.035156 C 4.066406 -33.75 4.28125 -33.464844 4.351562 -33.179688 C 4.421875 -32.964844 4.496094 -32.75 4.496094 -32.394531 L 4.496094 -32.035156 C 4.496094 -31.894531 4.421875 -31.539062 4.351562 -31.039062 L 3.566406 -25.328125 C 3.425781 -23.972656 3.140625 -21.546875 2.570312 -18.050781 C 2.070312 -14.625 1.710938 -11.914062 1.425781 -10.058594 C 1.070312 -7.632812 0.855469 -5.992188 0.785156 -5.066406 C 0.785156 -4.636719 0.714844 -4.210938 0.714844 -3.78125 C 0.714844 -2.925781 0.855469 -2.285156 1.070312 -1.785156 C 1.425781 -1.070312 2.140625 -0.570312 3.28125 -0.285156 C 4.28125 -0.144531 5.992188 0 8.5625 0 L 27.398438 0 C 29.824219 0 31.539062 -0.0703125 32.464844 -0.214844 C 33.75 -0.5 34.675781 -0.925781 35.246094 -1.570312 C 35.816406 -2.140625 36.175781 -3.066406 36.460938 -4.351562 C 36.746094 -5.351562 37.03125 -7.207031 37.386719 -10.058594 L 39.527344 -25.328125 C 39.886719 -27.683594 40.097656 -29.253906 40.097656 -30.109375 C 40.171875 -30.609375 40.171875 -31.039062 40.171875 -31.394531 C 40.171875 -32.464844 40.027344 -33.25 39.742188 -33.75 C 39.3125 -34.535156 38.316406 -35.035156 36.746094 -35.175781 C 35.890625 -35.320312 33.890625 -35.320312 30.824219 -35.320312 L 29.398438 -25.328125 L 27.257812 -10.058594 L 14.054688 -10.058594 C 13.128906 -10.058594 12.558594 -10.058594 12.273438 -10.132812 C 11.988281 -10.203125 11.84375 -10.347656 11.773438 -10.558594 C 11.773438 -10.773438 11.703125 -10.988281 11.703125 -11.273438 C 11.773438 -11.558594 11.84375 -11.988281 11.914062 -12.558594 L 13.699219 -25.328125 C 14.054688 -27.542969 14.269531 -28.898438 14.269531 -29.398438 C 14.414062 -30.46875 14.484375 -31.25 14.484375 -31.824219 C 14.484375 -33.105469 14.199219 -33.964844 13.558594 -34.390625 C 13.058594 -34.820312 12.128906 -35.105469 10.84375 -35.175781 C 10.273438 -35.320312 9.417969 -35.320312 8.417969 -35.320312 Z M 2.210938 -35.320312 "/></g></g></g><g fill="#00ffff" fill-opacity="1"><g transform="translate(166.680616, 243.985281)"><g><path d="M 4.28125 -25.328125 L 3.925781 -22.691406 L 2.496094 -12.628906 L 2.140625 -10.058594 L 1.425781 -4.996094 C 1.355469 -4.421875 1.285156 -3.996094 1.214844 -3.710938 C 1.070312 -3.351562 0.925781 -3.066406 0.714844 -2.710938 C 0.570312 -2.425781 0.214844 -1.996094 -0.355469 -1.570312 C -0.640625 -1.285156 -1.214844 -0.785156 -2.140625 0 L 1.140625 0 C 3.851562 0 5.636719 -0.0703125 6.5625 -0.144531 C 7.921875 -0.285156 8.917969 -0.640625 9.5625 -1.140625 C 10.273438 -1.640625 10.84375 -2.496094 11.128906 -3.78125 C 11.417969 -4.78125 11.84375 -6.851562 12.273438 -10.058594 L 12.628906 -12.628906 L 14.054688 -22.691406 C 14.199219 -23.402344 14.269531 -23.832031 14.269531 -24.046875 C 14.414062 -24.472656 14.484375 -24.832031 14.625 -24.972656 C 14.839844 -25.1875 15.125 -25.257812 15.484375 -25.257812 C 15.769531 -25.328125 16.269531 -25.328125 17.054688 -25.328125 L 16.695312 -22.691406 L 15.269531 -12.628906 L 14.914062 -10.058594 L 13.484375 0 C 17.195312 0 19.550781 -0.144531 20.550781 -0.355469 C 21.546875 -0.640625 22.261719 -1 22.691406 -1.425781 C 23.261719 -1.996094 23.761719 -2.925781 24.046875 -4.136719 C 24.332031 -5.136719 24.617188 -7.0625 25.042969 -10.058594 L 25.402344 -12.628906 L 26.828125 -22.691406 C 26.96875 -23.332031 27.042969 -23.761719 27.042969 -23.972656 C 27.183594 -24.472656 27.257812 -24.757812 27.398438 -24.902344 C 27.613281 -25.117188 27.898438 -25.257812 28.183594 -25.257812 C 28.46875 -25.328125 29.109375 -25.328125 30.109375 -25.328125 L 29.753906 -22.691406 L 28.328125 -12.628906 L 27.96875 -10.058594 L 26.542969 0 C 30.109375 0 32.394531 -0.144531 33.390625 -0.285156 C 34.605469 -0.570312 35.460938 -1 36.03125 -1.640625 C 36.601562 -2.355469 36.960938 -3.351562 37.246094 -4.710938 C 37.460938 -5.636719 37.746094 -7.421875 38.101562 -10.058594 L 38.457031 -12.628906 L 39.886719 -22.691406 L 40.242188 -25.328125 C 40.671875 -28.46875 40.882812 -30.46875 40.882812 -31.394531 C 40.882812 -32.679688 40.671875 -33.605469 40.171875 -34.175781 C 39.742188 -34.675781 39.027344 -35.035156 37.957031 -35.175781 C 37.101562 -35.320312 35.675781 -35.390625 33.675781 -35.390625 C 33.25 -35.390625 32.535156 -35.390625 31.539062 -35.320312 L 15.839844 -35.320312 C 14.839844 -35.390625 14.054688 -35.390625 13.628906 -35.390625 C 11.628906 -35.390625 10.203125 -35.320312 9.347656 -35.175781 C 8.132812 -35.035156 7.207031 -34.675781 6.636719 -34.105469 C 5.992188 -33.535156 5.492188 -32.464844 5.136719 -30.964844 C 4.996094 -30.039062 4.710938 -28.183594 4.28125 -25.328125 Z M 4.28125 -25.328125 "/></g></g></g><g fill="#00ffff" fill-opacity="1"><g transform="translate(208.204552, 243.985281)"><g><path d="M 8.988281 8.492188 L 10.417969 0 L 27.042969 0 C 29.683594 0 31.464844 -0.0703125 32.464844 -0.214844 C 33.75 -0.429688 34.675781 -0.785156 35.246094 -1.355469 C 35.960938 -1.996094 36.460938 -3.066406 36.746094 -4.566406 C 36.960938 -5.566406 37.246094 -7.347656 37.601562 -10.058594 C 38.816406 -18.550781 39.527344 -23.617188 39.742188 -25.328125 C 40.171875 -27.753906 40.382812 -29.324219 40.382812 -30.179688 C 40.457031 -30.753906 40.457031 -31.179688 40.457031 -31.539062 C 40.457031 -32.394531 40.382812 -33.105469 40.097656 -33.605469 C 39.671875 -34.605469 38.316406 -35.105469 36.105469 -35.246094 C 35.246094 -35.390625 33.605469 -35.390625 31.179688 -35.390625 L 15.125 -35.390625 C 12.34375 -35.390625 10.417969 -35.320312 9.417969 -35.175781 C 7.707031 -35.035156 6.492188 -34.535156 5.78125 -33.675781 C 5.28125 -33.035156 4.851562 -31.964844 4.496094 -30.394531 C 4.351562 -29.539062 4.136719 -27.898438 3.78125 -25.328125 L 3.425781 -22.691406 L 0.285156 0 L -1 10.058594 C -1.070312 10.632812 -1.140625 10.988281 -1.214844 11.203125 C -1.285156 11.488281 -1.425781 11.84375 -1.710938 12.128906 C -1.855469 12.414062 -2.140625 12.699219 -2.570312 13.128906 C -2.855469 13.414062 -3.425781 13.84375 -4.28125 14.554688 L -0.855469 14.554688 C 0.144531 14.554688 1 14.484375 1.710938 14.414062 C 2.855469 14.269531 3.78125 14.199219 4.566406 13.914062 C 5.421875 13.628906 6.066406 13.269531 6.5625 12.914062 C 7.347656 12.34375 7.921875 11.558594 8.347656 10.703125 C 8.632812 10.058594 8.847656 9.347656 8.988281 8.492188 Z M 11.773438 -10.058594 L 13.558594 -22.691406 C 13.699219 -23.402344 13.84375 -23.902344 13.914062 -24.117188 C 14.054688 -24.542969 14.128906 -24.757812 14.269531 -24.902344 C 14.484375 -25.117188 14.839844 -25.257812 15.269531 -25.257812 C 15.554688 -25.328125 16.054688 -25.328125 16.839844 -25.328125 L 29.609375 -25.328125 L 27.828125 -12.628906 C 27.753906 -11.988281 27.683594 -11.558594 27.613281 -11.273438 C 27.542969 -10.917969 27.398438 -10.632812 27.183594 -10.417969 C 27.042969 -10.347656 26.898438 -10.273438 26.683594 -10.132812 C 26.542969 -10.132812 26.328125 -10.132812 26.042969 -10.058594 Z M 11.773438 -10.058594 "/></g></g></g><g fill="#00ffff" fill-opacity="1"><g transform="translate(249.300409, 243.985281)"><g><path d="M 17.835938 -49.945312 C 14.554688 -49.945312 12.34375 -49.875 11.273438 -49.730469 C 9.988281 -49.515625 9.0625 -49.019531 8.417969 -48.304688 C 7.921875 -47.734375 7.492188 -46.664062 7.207031 -45.238281 C 6.992188 -44.378906 6.707031 -42.597656 6.277344 -39.886719 L 6.066406 -37.957031 L 16.195312 -37.957031 Z M 5.707031 -35.390625 L 1.425781 -5.207031 C 1.355469 -4.496094 1.285156 -4.066406 1.140625 -3.78125 C 1.070312 -3.425781 0.925781 -3.066406 0.640625 -2.710938 C 0.429688 -2.425781 0.0703125 -2.070312 -0.5 -1.5 C -0.785156 -1.214844 -1.285156 -0.714844 -2.140625 0 L 1.214844 0 C 3.78125 0 5.566406 -0.0703125 6.492188 -0.144531 C 8.0625 -0.285156 9.203125 -0.714844 9.917969 -1.355469 C 10.558594 -1.996094 11.058594 -3.066406 11.34375 -4.566406 C 11.628906 -5.492188 11.914062 -7.277344 12.273438 -9.988281 L 15.839844 -35.390625 Z M 5.707031 -35.390625 "/></g></g></g><g fill="#00ffff" fill-opacity="1"><g transform="translate(265.710217, 243.985281)"><g><path d="M 3.996094 -25.328125 L 1.285156 -5.992188 C 1.214844 -5.207031 1.140625 -4.710938 1.070312 -4.421875 C 1 -4.066406 0.925781 -3.710938 0.785156 -3.425781 C 0.640625 -2.996094 0.285156 -2.570312 -0.285156 -1.996094 C -0.570312 -1.640625 -1.140625 -1 -2.140625 0 L 0.855469 0 C 2.425781 0 3.496094 -0.0703125 4.136719 -0.0703125 C 5.636719 -0.144531 6.777344 -0.214844 7.492188 -0.355469 C 8.632812 -0.640625 9.417969 -1.070312 9.988281 -1.710938 C 10.417969 -2.285156 10.773438 -3.140625 11.058594 -4.28125 C 11.34375 -5.28125 11.628906 -7.207031 11.988281 -10.058594 L 13.699219 -22.402344 C 13.84375 -23.332031 13.984375 -23.902344 14.054688 -24.117188 C 14.199219 -24.542969 14.339844 -24.832031 14.484375 -24.972656 C 14.699219 -25.117188 15.054688 -25.257812 15.484375 -25.257812 C 15.839844 -25.328125 16.554688 -25.328125 17.625 -25.328125 L 29.753906 -25.328125 C 32.75 -25.328125 34.675781 -25.402344 35.605469 -25.472656 C 37.101562 -25.6875 38.171875 -25.972656 38.816406 -26.542969 C 39.527344 -27.113281 40.027344 -28.113281 40.382812 -29.46875 C 40.671875 -30.46875 40.957031 -32.394531 41.382812 -35.390625 L 13.984375 -35.390625 C 11.488281 -35.390625 9.773438 -35.320312 8.777344 -35.105469 C 7.707031 -34.960938 6.921875 -34.605469 6.351562 -34.035156 C 5.707031 -33.464844 5.207031 -32.320312 4.851562 -30.753906 C 4.710938 -29.894531 4.421875 -28.039062 3.996094 -25.328125 Z M 3.996094 -25.328125 "/></g></g></g><g fill="#00ffff" fill-opacity="1"><g transform="translate(306.663379, 243.985281)"><g><path d="M 15.269531 -35.320312 C 11.988281 -35.320312 9.847656 -35.320312 8.847656 -35.175781 C 7.5625 -35.035156 6.5625 -34.605469 5.851562 -33.964844 C 5.207031 -33.320312 4.710938 -32.179688 4.351562 -30.46875 L 3.496094 -25.328125 L 1.355469 -10.058594 C 1 -7.207031 0.785156 -5.351562 0.714844 -4.421875 L 0.714844 -3.851562 C 0.714844 -2.925781 0.855469 -2.210938 1.140625 -1.640625 C 1.570312 -1 2.285156 -0.570312 3.28125 -0.285156 C 4.28125 -0.144531 6.136719 0 8.988281 0 L 35.960938 0 L 35.960938 -1.214844 C 35.960938 -3.28125 35.960938 -4.78125 35.816406 -5.636719 C 35.746094 -7.136719 35.460938 -8.207031 34.890625 -8.777344 C 34.460938 -9.347656 33.675781 -9.703125 32.535156 -9.847656 C 31.75 -9.988281 29.96875 -10.058594 27.183594 -10.058594 L 11.488281 -10.058594 C 11.628906 -10.773438 11.703125 -11.273438 11.703125 -11.488281 C 11.773438 -11.914062 11.84375 -12.199219 11.988281 -12.34375 C 12.128906 -12.488281 12.34375 -12.628906 12.558594 -12.628906 L 28.613281 -12.628906 C 31.109375 -12.628906 32.820312 -12.699219 33.75 -12.84375 C 35.175781 -13.058594 36.175781 -13.484375 36.816406 -14.054688 C 37.386719 -14.625 37.886719 -15.625 38.171875 -16.980469 C 38.457031 -17.980469 38.742188 -19.835938 39.101562 -22.691406 L 39.527344 -25.328125 C 39.8125 -27.613281 40.027344 -29.109375 40.097656 -29.96875 C 40.171875 -30.539062 40.171875 -31.039062 40.171875 -31.464844 C 40.171875 -32.894531 39.886719 -33.890625 39.171875 -34.390625 C 38.601562 -34.890625 37.53125 -35.175781 35.960938 -35.246094 C 35.105469 -35.320312 33.390625 -35.320312 30.824219 -35.320312 Z M 15.410156 -25.328125 L 29.324219 -25.328125 C 29.253906 -24.472656 29.183594 -23.972656 29.109375 -23.6875 C 29.109375 -23.402344 29.039062 -23.1875 28.898438 -23.046875 C 28.753906 -22.902344 28.46875 -22.761719 28.039062 -22.691406 L 13.269531 -22.691406 C 13.414062 -23.546875 13.484375 -24.046875 13.484375 -24.257812 C 13.628906 -24.617188 13.699219 -24.757812 13.769531 -24.902344 C 13.914062 -25.042969 14.054688 -25.1875 14.199219 -25.257812 C 14.339844 -25.328125 14.769531 -25.328125 15.410156 -25.328125 Z M 15.410156 -25.328125 "/></g></g></g><g fill="#000000" fill-opacity="1"><g transform="translate(127.6541, 243.985281)"><g><path d="M 2.210938 -35.320312 C 2.996094 -34.746094 3.496094 -34.320312 3.710938 -34.035156 C 4.066406 -33.75 4.28125 -33.464844 4.351562 -33.179688 C 4.421875 -32.964844 4.496094 -32.75 4.496094 -32.394531 L 4.496094 -32.035156 C 4.496094 -31.894531 4.421875 -31.539062 4.351562 -31.039062 L 3.566406 -25.328125 C 3.425781 -23.972656 3.140625 -21.546875 2.570312 -18.050781 C 2.070312 -14.625 1.710938 -11.914062 1.425781 -10.058594 C 1.070312 -7.632812 0.855469 -5.992188 0.785156 -5.066406 C 0.785156 -4.636719 0.714844 -4.210938 0.714844 -3.78125 C 0.714844 -2.925781 0.855469 -2.285156 1.070312 -1.785156 C 1.425781 -1.070312 2.140625 -0.570312 3.28125 -0.285156 C 4.28125 -0.144531 5.992188 0 8.5625 0 L 27.398438 0 C 29.824219 0 31.539062 -0.0703125 32.464844 -0.214844 C 33.75 -0.5 34.675781 -0.925781 35.246094 -1.570312 C 35.816406 -2.140625 36.175781 -3.066406 36.460938 -4.351562 C 36.746094 -5.351562 37.03125 -7.207031 37.386719 -10.058594 L 39.527344 -25.328125 C 39.886719 -27.683594 40.097656 -29.253906 40.097656 -30.109375 C 40.171875 -30.609375 40.171875 -31.039062 40.171875 -31.394531 C 40.171875 -32.464844 40.027344 -33.25 39.742188 -33.75 C 39.3125 -34.535156 38.316406 -35.035156 36.746094 -35.175781 C 35.890625 -35.320312 33.890625 -35.320312 30.824219 -35.320312 L 29.398438 -25.328125 L 27.257812 -10.058594 L 14.054688 -10.058594 C 13.128906 -10.058594 12.558594 -10.058594 12.273438 -10.132812 C 11.988281 -10.203125 11.84375 -10.347656 11.773438 -10.558594 C 11.773438 -10.773438 11.703125 -10.988281 11.703125 -11.273438 C 11.773438 -11.558594 11.84375 -11.988281 11.914062 -12.558594 L 13.699219 -25.328125 C 14.054688 -27.542969 14.269531 -28.898438 14.269531 -29.398438 C 14.414062 -30.46875 14.484375 -31.25 14.484375 -31.824219 C 14.484375 -33.105469 14.199219 -33.964844 13.558594 -34.390625 C 13.058594 -34.820312 12.128906 -35.105469 10.84375 -35.175781 C 10.273438 -35.320312 9.417969 -35.320312 8.417969 -35.320312 Z M 2.210938 -35.320312 "/></g></g></g><g fill="#000000" fill-opacity="1"><g transform="translate(168.464569, 243.985281)"><g><path d="M 4.28125 -25.328125 L 3.925781 -22.691406 L 2.496094 -12.628906 L 2.140625 -10.058594 L 1.425781 -4.996094 C 1.355469 -4.421875 1.285156 -3.996094 1.214844 -3.710938 C 1.070312 -3.351562 0.925781 -3.066406 0.714844 -2.710938 C 0.570312 -2.425781 0.214844 -1.996094 -0.355469 -1.570312 C -0.640625 -1.285156 -1.214844 -0.785156 -2.140625 0 L 1.140625 0 C 3.851562 0 5.636719 -0.0703125 6.5625 -0.144531 C 7.921875 -0.285156 8.917969 -0.640625 9.5625 -1.140625 C 10.273438 -1.640625 10.84375 -2.496094 11.128906 -3.78125 C 11.417969 -4.78125 11.84375 -6.851562 12.273438 -10.058594 L 12.628906 -12.628906 L 14.054688 -22.691406 C 14.199219 -23.402344 14.269531 -23.832031 14.269531 -24.046875 C 14.414062 -24.472656 14.484375 -24.832031 14.625 -24.972656 C 14.839844 -25.1875 15.125 -25.257812 15.484375 -25.257812 C 15.769531 -25.328125 16.269531 -25.328125 17.054688 -25.328125 L 16.695312 -22.691406 L 15.269531 -12.628906 L 14.914062 -10.058594 L 13.484375 0 C 17.195312 0 19.550781 -0.144531 20.550781 -0.355469 C 21.546875 -0.640625 22.261719 -1 22.691406 -1.425781 C 23.261719 -1.996094 23.761719 -2.925781 24.046875 -4.136719 C 24.332031 -5.136719 24.617188 -7.0625 25.042969 -10.058594 L 25.402344 -12.628906 L 26.828125 -22.691406 C 26.96875 -23.332031 27.042969 -23.761719 27.042969 -23.972656 C 27.183594 -24.472656 27.257812 -24.757812 27.398438 -24.902344 C 27.613281 -25.117188 27.898438 -25.257812 28.183594 -25.257812 C 28.46875 -25.328125 29.109375 -25.328125 30.109375 -25.328125 L 29.753906 -22.691406 L 28.328125 -12.628906 L 27.96875 -10.058594 L 26.542969 0 C 30.109375 0 32.394531 -0.144531 33.390625 -0.285156 C 34.605469 -0.570312 35.460938 -1 36.03125 -1.640625 C 36.601562 -2.355469 36.960938 -3.351562 37.246094 -4.710938 C 37.460938 -5.636719 37.746094 -7.421875 38.101562 -10.058594 L 38.457031 -12.628906 L 39.886719 -22.691406 L 40.242188 -25.328125 C 40.671875 -28.46875 40.882812 -30.46875 40.882812 -31.394531 C 40.882812 -32.679688 40.671875 -33.605469 40.171875 -34.175781 C 39.742188 -34.675781 39.027344 -35.035156 37.957031 -35.175781 C 37.101562 -35.320312 35.675781 -35.390625 33.675781 -35.390625 C 33.25 -35.390625 32.535156 -35.390625 31.539062 -35.320312 L 15.839844 -35.320312 C 14.839844 -35.390625 14.054688 -35.390625 13.628906 -35.390625 C 11.628906 -35.390625 10.203125 -35.320312 9.347656 -35.175781 C 8.132812 -35.035156 7.207031 -34.675781 6.636719 -34.105469 C 5.992188 -33.535156 5.492188 -32.464844 5.136719 -30.964844 C 4.996094 -30.039062 4.710938 -28.183594 4.28125 -25.328125 Z M 4.28125 -25.328125 "/></g></g></g><g fill="#000000" fill-opacity="1"><g transform="translate(209.988506, 243.985281)"><g><path d="M 8.988281 8.492188 L 10.417969 0 L 27.042969 0 C 29.683594 0 31.464844 -0.0703125 32.464844 -0.214844 C 33.75 -0.429688 34.675781 -0.785156 35.246094 -1.355469 C 35.960938 -1.996094 36.460938 -3.066406 36.746094 -4.566406 C 36.960938 -5.566406 37.246094 -7.347656 37.601562 -10.058594 C 38.816406 -18.550781 39.527344 -23.617188 39.742188 -25.328125 C 40.171875 -27.753906 40.382812 -29.324219 40.382812 -30.179688 C 40.457031 -30.753906 40.457031 -31.179688 40.457031 -31.539062 C 40.457031 -32.394531 40.382812 -33.105469 40.097656 -33.605469 C 39.671875 -34.605469 38.316406 -35.105469 36.105469 -35.246094 C 35.246094 -35.390625 33.605469 -35.390625 31.179688 -35.390625 L 15.125 -35.390625 C 12.34375 -35.390625 10.417969 -35.320312 9.417969 -35.175781 C 7.707031 -35.035156 6.492188 -34.535156 5.78125 -33.675781 C 5.28125 -33.035156 4.851562 -31.964844 4.496094 -30.394531 C 4.351562 -29.539062 4.136719 -27.898438 3.78125 -25.328125 L 3.425781 -22.691406 L 0.285156 0 L -1 10.058594 C -1.070312 10.632812 -1.140625 10.988281 -1.214844 11.203125 C -1.285156 11.488281 -1.425781 11.84375 -1.710938 12.128906 C -1.855469 12.414062 -2.140625 12.699219 -2.570312 13.128906 C -2.855469 13.414062 -3.425781 13.84375 -4.28125 14.554688 L -0.855469 14.554688 C 0.144531 14.554688 1 14.484375 1.710938 14.414062 C 2.855469 14.269531 3.78125 14.199219 4.566406 13.914062 C 5.421875 13.628906 6.066406 13.269531 6.5625 12.914062 C 7.347656 12.34375 7.921875 11.558594 8.347656 10.703125 C 8.632812 10.058594 8.847656 9.347656 8.988281 8.492188 Z M 11.773438 -10.058594 L 13.558594 -22.691406 C 13.699219 -23.402344 13.84375 -23.902344 13.914062 -24.117188 C 14.054688 -24.542969 14.128906 -24.757812 14.269531 -24.902344 C 14.484375 -25.117188 14.839844 -25.257812 15.269531 -25.257812 C 15.554688 -25.328125 16.054688 -25.328125 16.839844 -25.328125 L 29.609375 -25.328125 L 27.828125 -12.628906 C 27.753906 -11.988281 27.683594 -11.558594 27.613281 -11.273438 C 27.542969 -10.917969 27.398438 -10.632812 27.183594 -10.417969 C 27.042969 -10.347656 26.898438 -10.273438 26.683594 -10.132812 C 26.542969 -10.132812 26.328125 -10.132812 26.042969 -10.058594 Z M 11.773438 -10.058594 "/></g></g></g><g fill="#000000" fill-opacity="1"><g transform="translate(251.084362, 243.985281)"><g><path d="M 17.835938 -49.945312 C 14.554688 -49.945312 12.34375 -49.875 11.273438 -49.730469 C 9.988281 -49.515625 9.0625 -49.019531 8.417969 -48.304688 C 7.921875 -47.734375 7.492188 -46.664062 7.207031 -45.238281 C 6.992188 -44.378906 6.707031 -42.597656 6.277344 -39.886719 L 6.066406 -37.957031 L 16.195312 -37.957031 Z M 5.707031 -35.390625 L 1.425781 -5.207031 C 1.355469 -4.496094 1.285156 -4.066406 1.140625 -3.78125 C 1.070312 -3.425781 0.925781 -3.066406 0.640625 -2.710938 C 0.429688 -2.425781 0.0703125 -2.070312 -0.5 -1.5 C -0.785156 -1.214844 -1.285156 -0.714844 -2.140625 0 L 1.214844 0 C 3.78125 0 5.566406 -0.0703125 6.492188 -0.144531 C 8.0625 -0.285156 9.203125 -0.714844 9.917969 -1.355469 C 10.558594 -1.996094 11.058594 -3.066406 11.34375 -4.566406 C 11.628906 -5.492188 11.914062 -7.277344 12.273438 -9.988281 L 15.839844 -35.390625 Z M 5.707031 -35.390625 "/></g></g></g><g fill="#000000" fill-opacity="1"><g transform="translate(267.494171, 243.985281)"><g><path d="M 3.996094 -25.328125 L 1.285156 -5.992188 C 1.214844 -5.207031 1.140625 -4.710938 1.070312 -4.421875 C 1 -4.066406 0.925781 -3.710938 0.785156 -3.425781 C 0.640625 -2.996094 0.285156 -2.570312 -0.285156 -1.996094 C -0.570312 -1.640625 -1.140625 -1 -2.140625 0 L 0.855469 0 C 2.425781 0 3.496094 -0.0703125 4.136719 -0.0703125 C 5.636719 -0.144531 6.777344 -0.214844 7.492188 -0.355469 C 8.632812 -0.640625 9.417969 -1.070312 9.988281 -1.710938 C 10.417969 -2.285156 10.773438 -3.140625 11.058594 -4.28125 C 11.34375 -5.28125 11.628906 -7.207031 11.988281 -10.058594 L 13.699219 -22.402344 C 13.84375 -23.332031 13.984375 -23.902344 14.054688 -24.117188 C 14.199219 -24.542969 14.339844 -24.832031 14.484375 -24.972656 C 14.699219 -25.117188 15.054688 -25.257812 15.484375 -25.257812 C 15.839844 -25.328125 16.554688 -25.328125 17.625 -25.328125 L 29.753906 -25.328125 C 32.75 -25.328125 34.675781 -25.402344 35.605469 -25.472656 C 37.101562 -25.6875 38.171875 -25.972656 38.816406 -26.542969 C 39.527344 -27.113281 40.027344 -28.113281 40.382812 -29.46875 C 40.671875 -30.46875 40.957031 -32.394531 41.382812 -35.390625 L 13.984375 -35.390625 C 11.488281 -35.390625 9.773438 -35.320312 8.777344 -35.105469 C 7.707031 -34.960938 6.921875 -34.605469 6.351562 -34.035156 C 5.707031 -33.464844 5.207031 -32.320312 4.851562 -30.753906 C 4.710938 -29.894531 4.421875 -28.039062 3.996094 -25.328125 Z M 3.996094 -25.328125 "/></g></g></g><g fill="#000000" fill-opacity="1"><g transform="translate(308.447333, 243.985281)"><g><path d="M 15.269531 -35.320312 C 11.988281 -35.320312 9.847656 -35.320312 8.847656 -35.175781 C 7.5625 -35.035156 6.5625 -34.605469 5.851562 -33.964844 C 5.207031 -33.320312 4.710938 -32.179688 4.351562 -30.46875 L 3.496094 -25.328125 L 1.355469 -10.058594 C 1 -7.207031 0.785156 -5.351562 0.714844 -4.421875 L 0.714844 -3.851562 C 0.714844 -2.925781 0.855469 -2.210938 1.140625 -1.640625 C 1.570312 -1 2.285156 -0.570312 3.28125 -0.285156 C 4.28125 -0.144531 6.136719 0 8.988281 0 L 35.960938 0 L 35.960938 -1.214844 C 35.960938 -3.28125 35.960938 -4.78125 35.816406 -5.636719 C 35.746094 -7.136719 35.460938 -8.207031 34.890625 -8.777344 C 34.460938 -9.347656 33.675781 -9.703125 32.535156 -9.847656 C 31.75 -9.988281 29.96875 -10.058594 27.183594 -10.058594 L 11.488281 -10.058594 C 11.628906 -10.773438 11.703125 -11.273438 11.703125 -11.488281 C 11.773438 -11.914062 11.84375 -12.199219 11.988281 -12.34375 C 12.128906 -12.488281 12.34375 -12.628906 12.558594 -12.628906 L 28.613281 -12.628906 C 31.109375 -12.628906 32.820312 -12.699219 33.75 -12.84375 C 35.175781 -13.058594 36.175781 -13.484375 36.816406 -14.054688 C 37.386719 -14.625 37.886719 -15.625 38.171875 -16.980469 C 38.457031 -17.980469 38.742188 -19.835938 39.101562 -22.691406 L 39.527344 -25.328125 C 39.8125 -27.613281 40.027344 -29.109375 40.097656 -29.96875 C 40.171875 -30.539062 40.171875 -31.039062 40.171875 -31.464844 C 40.171875 -32.894531 39.886719 -33.890625 39.171875 -34.390625 C 38.601562 -34.890625 37.53125 -35.175781 35.960938 -35.246094 C 35.105469 -35.320312 33.390625 -35.320312 30.824219 -35.320312 Z M 15.410156 -25.328125 L 29.324219 -25.328125 C 29.253906 -24.472656 29.183594 -23.972656 29.109375 -23.6875 C 29.109375 -23.402344 29.039062 -23.1875 28.898438 -23.046875 C 28.753906 -22.902344 28.46875 -22.761719 28.039062 -22.691406 L 13.269531 -22.691406 C 13.414062 -23.546875 13.484375 -24.046875 13.484375 -24.257812 C 13.628906 -24.617188 13.699219 -24.757812 13.769531 -24.902344 C 13.914062 -25.042969 14.054688 -25.1875 14.199219 -25.257812 C 14.339844 -25.328125 14.769531 -25.328125 15.410156 -25.328125 Z M 15.410156 -25.328125 "/></g></g></g></svg>